<?xml version="1.0" standalone="no"?>
<!DOCTYPE svg PUBLIC "-//W3C//DTD SVG 20010904//EN"
 "http://www.w3.org/TR/2001/REC-SVG-20010904/DTD/svg10.dtd">
<svg version="1.0" xmlns="http://www.w3.org/2000/svg"
 width="500.000000pt" height="500.000000pt" viewBox="0 0 500.000000 500.000000"
 preserveAspectRatio="xMidYMid meet">
<metadata>
Created by potrace 1.11, written by Peter Selinger 2001-2013
</metadata>
<g transform="translate(0.000000,500.000000) scale(0.100000,-0.100000)"
fill="#000000" stroke="none">
<path d="M2425 4616 c-27 -19 -1955 -1948 -2059 -2059 -140 -151 -269 -387
-321 -587 -19 -71 -20 -78 -34 -165 -9 -62 -7 -351 3 -395 3 -14 11 -50 17
-80 30 -151 120 -352 215 -486 94 -132 242 -269 389 -362 145 -91 359 -163
556 -188 71 -10 257 -10 339 -1 203 22 460 134 644 279 42 34 214 204 269 267
l48 54 50 -54 c146 -155 185 -193 245 -244 85 -72 184 -136 289 -185 89 -42
256 -97 320 -105 22 -3 67 -9 100 -14 62 -9 281 -7 347 3 543 84 989 494 1118
1029 30 124 35 170 34 317 -1 267 -79 500 -255 767 -67 101 -138 174 -1108
1146 -570 571 -1049 1048 -1064 1059 -40 29 -105 31 -142 4z m994 -1409 c631
-631 936 -943 974 -995 190 -268 251 -530 183 -794 -46 -180 -135 -338 -260
-464 -343 -342 -888 -370 -1264 -66 -31 25 -93 84 -137 131 -44 47 -106 112
-138 145 l-57 60 33 35 c18 20 56 60 83 90 27 30 56 62 64 71 8 9 33 36 55 61
98 109 203 226 243 268 90 96 112 160 86 250 -23 78 -95 130 -182 132 -83 2
-112 -19 -297 -225 -5 -6 -48 -54 -95 -106 -81 -91 -135 -150 -191 -211 l-26
-28 -263 270 c-172 176 -276 275 -299 285 -134 56 -283 -45 -276 -187 4 -69
27 -102 161 -239 67 -69 197 -201 288 -295 l165 -170 -68 -70 c-38 -38 -102
-105 -142 -149 -204 -217 -436 -327 -694 -327 -49 0 -99 2 -110 4 -11 3 -42 8
-68 11 -63 10 -189 48 -252 76 -159 73 -326 222 -403 359 -8 13 -23 39 -34 59
-21 37 -65 151 -73 186 -2 11 -7 32 -10 46 -19 83 -24 230 -12 335 18 144 94
326 194 460 52 70 1881 1915 1895 1912 4 -1 421 -415 927 -920z"/>
</g>
</svg>
