<svg xmlns="http://www.w3.org/2000/svg" xmlns:xlink="http://www.w3.org/1999/xlink" width="348" height="248" viewBox="0 0 348 248">
    <defs>
        <filter id="jghmfopf0a" width="104.1%" height="108%" x="-2.1%" y="-2%" filterUnits="objectBoundingBox">
            <feOffset dy="7" in="SourceAlpha" result="shadowOffsetOuter1"/>
            <feColorMatrix in="shadowOffsetOuter1" values="0 0 0 0 0.917647059 0 0 0 0 0 0 0 0 0 0.423529412 0 0 0 1 0"/>
        </filter>
        <path id="f83u61jn0b" d="M230.704 34c2.263 0 3.77 1.508 3.77 3.772v80.023c.382.375 1.132.757 1.889 1.132 1.507 1.133 2.639 3.015 3.396 4.905 8.305 16.237 16.978 33.6 18.867 52.851.375 4.155.75 8.685-.382 13.214-3.02 11.325-13.583 15.855-22.638 17.362-20.749 2.648-41.498-3.772-61.497-11.7l.006.003c-.518.21-1.038.416-1.558.62l-1.563.61c-19.027 7.382-38.704 13.34-58.375 10.475-9.055-1.508-19.617-6.038-22.638-17.362-1.132-4.155-1.132-8.685-.757-13.215 1.889-19.252 10.57-36.62 18.867-52.85 1.132-1.883 1.89-3.773 3.396-4.905h.375V37.772c0-2.264 1.507-3.772 3.77-3.772 2.264 0 3.771 1.508 3.771 3.772l-.007 79.648c3.77 0 7.923.382 11.319 3.022 2.646 1.89 4.527 5.287 6.416 7.927 7.174 10.193 16.604 17.738 23.777 28.694 7.548 10.568 12.076 24.54 13.208 38.504l-.004-.04c1.518-13.953 6.044-27.912 13.205-38.47 7.166-10.568 16.603-18.12 23.77-28.688 1.888-3.022 3.777-6.037 6.416-7.927 2.639-2.265 6.034-3.022 9.43-3.022V37.772c0-2.264 1.507-3.772 3.77-3.772z"/>
    </defs>
    <g fill="none" fill-rule="evenodd">
        <g>
            <g>
                <g>
                    <path d="M0 0H348V248H0z" transform="translate(-86 -305) translate(70 147) translate(16 158)"/>
                    <g fill-rule="nonzero" transform="translate(-86 -305) translate(70 147) translate(16 158)">
                        <use fill="#000" filter="url(#jghmfopf0a)" xlink:href="#f83u61jn0b"/>
                        <use fill="#FF4A9D" xlink:href="#f83u61jn0b"/>
                    </g>
                </g>
            </g>
        </g>
    </g>
</svg>
