<svg xmlns="http://www.w3.org/2000/svg" xmlns:xlink="http://www.w3.org/1999/xlink" width="348" height="248" viewBox="0 0 348 248">
    <defs>
        <path id="yrksf3lb4a" d="M0 0H348V248H0z"/>
        <path id="0iioooymzc" d="M0 0h103c-3.333 25.141-5 49.522-5 73.145 0 23.622 1.667 47.24 5 70.855v8H0v-8c3.333-31.012 5-54.63 5-70.855S3.333 32.538 0 0z"/>
    </defs>
    <g fill="none" fill-rule="evenodd">
        <g>
            <g>
                <g transform="translate(-86 -305) translate(70 147) translate(16 158)">
                    <mask id="viar3kvdib" fill="#fff">
                        <use xlink:href="#yrksf3lb4a"/>
                    </mask>
                    <g mask="url(#viar3kvdib)">
                        <g transform="rotate(15 78.82 585.639)">
                            <path fill="#AE0050" d="M38 0h27c20.987 0 38 17.013 38 38v9.428H0V38C0 17.013 17.013 0 38 0z"/>
                            <g transform="translate(0 49)">
                                <mask id="z22lfe7yvd" fill="#fff">
                                    <use xlink:href="#0iioooymzc"/>
                                </mask>
                                <use fill="#FF4A9D" xlink:href="#0iioooymzc"/>
                                <g mask="url(#z22lfe7yvd)">
                                    <g>
                                        <path fill="#FFF" d="M8 0h78v32H8c-4.418 0-8-3.582-8-8V8c0-4.418 3.582-8 8-8z" transform="translate(17 44)"/>
                                        <path fill="#534B4E" fill-rule="nonzero" d="M14.412 21.77c1.122 0 2.124-.232 3.005-.693.881-.462 1.569-1.126 2.063-1.995.494-.868.74-1.895.74-3.082 0-1.187-.246-2.214-.74-3.082-.494-.869-1.182-1.533-2.063-1.995-.881-.461-1.883-.692-3.005-.692H10v11.538h4.412zm0-1.88h-2.257v-7.78h2.257c1.122 0 1.978.343 2.567 1.03.59.687.884 1.64.884 2.86s-.294 2.173-.884 2.86c-.589.687-1.445 1.03-2.567 1.03zm15.423 1.88v-2.045h-5.506v-2.95h4.142V14.73H24.33v-2.456h5.338V10.23h-7.544v11.538h7.712zm6.802.23c1.112 0 2.108-.25 2.99-.75.88-.5 1.57-1.203 2.07-2.11.5-.906.75-1.953.75-3.14s-.25-2.234-.75-3.14c-.5-.907-1.19-1.61-2.07-2.11-.882-.5-1.878-.75-2.99-.75-1.11 0-2.107.25-2.988.75-.881.5-1.572 1.203-2.071 2.11-.5.906-.75 1.953-.75 3.14s.25 2.234.75 3.14c.5.907 1.19 1.61 2.07 2.11.882.5 1.878.75 2.99.75zm0-2.044c-1.144 0-2.023-.363-2.635-1.088-.611-.725-.917-1.681-.917-2.868 0-1.187.306-2.143.917-2.868.612-.725 1.49-1.088 2.635-1.088 1.145 0 2.024.363 2.636 1.088.611.725.917 1.681.917 2.868 0 1.187-.306 2.143-.917 2.868-.612.725-1.49 1.088-2.636 1.088zm12.107 1.813c1.122 0 2.124-.23 3.005-.692.882-.462 1.57-1.126 2.063-1.995.494-.868.741-1.895.741-3.082 0-1.187-.247-2.214-.74-3.082-.495-.869-1.182-1.533-2.064-1.995-.88-.461-1.883-.692-3.005-.692h-4.412v11.538h4.412zm0-1.879h-2.256v-7.78h2.256c1.122 0 1.978.343 2.568 1.03.589.687.884 1.64.884 2.86s-.295 2.173-.884 2.86c-.59.687-1.446 1.03-2.568 1.03zM61.558 22c1.11 0 2.107-.25 2.988-.75.881-.5 1.572-1.203 2.071-2.11.5-.906.75-1.953.75-3.14s-.25-2.234-.75-3.14c-.5-.907-1.19-1.61-2.07-2.11-.882-.5-1.878-.75-2.99-.75-1.11 0-2.107.25-2.988.75-.881.5-1.572 1.203-2.071 2.11-.5.906-.75 1.953-.75 3.14s.25 2.234.75 3.14c.5.907 1.19 1.61 2.07 2.11.882.5 1.878.75 2.99.75zm0-2.044c-1.145 0-2.024-.363-2.636-1.088-.611-.725-.917-1.681-.917-2.868 0-1.187.306-2.143.917-2.868.612-.725 1.49-1.088 2.636-1.088 1.144 0 2.023.363 2.635 1.088.611.725.917 1.681.917 2.868 0 1.187-.306 2.143-.917 2.868-.612.725-1.49 1.088-2.635 1.088zm9.85 1.813v-4.285h2.189l2.273 4.285h2.407l-2.66-4.846c.64-.308 1.134-.717 1.482-1.228.348-.51.522-1.168.522-1.97 0-1.154-.362-2.024-1.086-2.612-.724-.588-1.715-.882-2.972-.882h-4.31v11.538h2.155zm1.582-6.05h-1.582v-3.724h1.667c.808 0 1.392.156 1.75.47.36.312.54.771.54 1.376 0 1.252-.792 1.879-2.375 1.879zm7.645 6.05l.976-2.736h4.294l.977 2.736h2.088l-4.193-11.538H82.74l-4.193 11.538h2.088zm4.597-4.582h-2.947l1.482-4.121 1.465 4.12zm7.24 4.582v-7.912l5.388 7.912h1.768V10.231h-2.155v7.45l-5.035-7.45h-2.121v11.538h2.155zm14.194 0v-9.494H110V10.23h-8.823v2.044h3.334v9.494h2.155z" transform="translate(17 44)"/>
                                    </g>
                                </g>
                            </g>
                            <path fill="#AE0050" d="M0 203h103v17c0 4.418-3.582 8-8 8H8c-4.418 0-8-3.582-8-8v-17z"/>
                            <rect width="35" height="19" x="34" y="206" fill="#FF4A9D" rx="1"/>
                            <path fill="#AE0050" d="M0 201H103V203H0zM0 47H103V49H0z"/>
                        </g>
                    </g>
                </g>
            </g>
        </g>
    </g>
</svg>
