<svg xmlns="http://www.w3.org/2000/svg" xmlns:xlink="http://www.w3.org/1999/xlink" width="364" height="110" viewBox="0 0 364 110">
    <defs>
        <path id="ztr29m1rda" d="M0 0H364V110H0z"/>
    </defs>
    <g fill="none" fill-rule="evenodd">
        <g>
            <g transform="translate(-458 -947) translate(458 947)">
                <mask id="pky559ifrb" fill="#fff">
                    <use xlink:href="#ztr29m1rda"/>
                </mask>
                <use fill="#FEF4F9" xlink:href="#ztr29m1rda"/>
                <g mask="url(#pky559ifrb)">
                    <g>
                        <g>
                            <path d="M0 0H86.4V142.4H0z" transform="translate(51 -45) rotate(20 -27.734 148.384)"/>
                            <g fill-rule="nonzero">
                                <path fill="#E7F4FF" d="M53.171 0H6.913C3.127 0 .028 5.924.028 12.866v44.963c0 4.025 1.043 7.623 2.657 9.938.326.469 3.583 3.67 3.583 13.727v22.087c0 6.942 3.098 12.622 6.885 12.622H46.93c3.787 0 6.885-5.68 6.885-12.622V81.494c0-10.057 3.257-13.258 3.583-13.727 1.614-2.315 2.657-5.913 2.657-9.938V12.866C60.056 5.924 56.958 0 53.17 0z" transform="translate(51 -45) rotate(20 -27.734 148.384) translate(12.8 12.8)"/>
                                <path fill="#B5E1FF" d="M27.051 103.581V81.494c0-10.057-3.256-13.258-3.583-13.727-1.613-2.315-2.656-5.913-2.656-9.938V12.866C20.812 5.924 23.91 0 27.697 0H6.913C3.127 0 .028 5.924.028 12.866v44.963c0 4.025 1.043 7.623 2.657 9.938.326.469 3.583 3.67 3.583 13.727v22.087c0 6.942 3.098 12.622 6.885 12.622h20.783c-3.786 0-6.885-5.68-6.885-12.622z" transform="translate(51 -45) rotate(20 -27.734 148.384) translate(12.8 12.8)"/>
                                <path fill="#96C8EF" d="M30.042 94.186c-4.497 0-8.176 3.679-8.176 8.175v13.842h16.352V102.36c0-4.496-3.68-8.175-8.176-8.175z" transform="translate(51 -45) rotate(20 -27.734 148.384) translate(12.8 12.8)"/>
                                <path fill="#FFC905" d="M4.547 45.227v13.971c0 1.33.306 2.58.844 3.457 3.48 4.558 5.395 12.13 5.395 21.34v23.144c0 2.464 1.084 4.546 2.367 4.546h33.779c1.283 0 2.366-2.082 2.366-4.546V83.995c0-9.21 1.915-16.782 5.395-21.34.538-.878.845-2.128.845-3.457v-13.97H4.547z" transform="translate(51 -45) rotate(20 -27.734 148.384) translate(12.8 12.8)"/>
                                <path fill="#F08E00" fill-opacity=".379" d="M4.547 48.633v10.565c0 1.33.306 2.58.844 3.457 3.48 4.558 5.395 12.13 5.395 21.34v23.144c0 2.464 1.084 4.546 2.367 4.546h14.32c-.272-1.42-.422-2.951-.422-4.546V78.435c0-10.538-3.256-13.892-3.583-14.383-1.613-2.426-2.656-6.196-2.656-10.414v-5.005H4.547z" transform="translate(51 -45) rotate(20 -27.734 148.384) translate(12.8 12.8)"/>
                                <path fill="#E46609" d="M10.786 102.262v4.877c0 2.464 1.084 4.546 2.367 4.546h33.779c1.283 0 2.366-2.082 2.366-4.546v-4.877H10.786z" transform="translate(51 -45) rotate(20 -27.734 148.384) translate(12.8 12.8)"/>
                                <path fill="#FFF4EA" d="M53.079 43.39H7.005c-1.872 0-2.458 1.286-2.458 1.946v4.54h50.99v-4.548c0-1.072-1.1-1.937-2.458-1.937z" transform="translate(51 -45) rotate(20 -27.734 148.384) translate(12.8 12.8)"/>
                            </g>
                        </g>
                        <g>
                            <path d="M0 0H86.4V142.4H0z" transform="translate(51 -45) rotate(-20 197.383 -206.274)"/>
                            <g fill-rule="nonzero">
                                <path fill="#D1E7F8" d="M47.823 96.43c-13.419 0-15.46-5.388-15.712-7.744V54.408c0-5.463 6.12-7.012 6.12-7.012H18.849s6.119 1.55 6.119 7.012V88.68c-.248 2.352-2.28 7.751-15.712 7.751-1.907 0-3.467 1.56-3.467 3.467s1.56 3.467 3.467 3.467h38.568c1.907 0 3.467-1.56 3.467-3.467 0-3.36-3.468-3.466-3.468-3.466z" transform="translate(51 -45) rotate(-20 197.383 -206.274) translate(14.4 25.6)"/>
                                <path fill="#96C8EF" d="M16.416 100.945c13.433 0 15.43-5.743 15.677-8.095l.019-38.441c0-5.463 6.119-7.013 6.119-7.013H18.849s6.119 1.55 6.119 7.013v34.27c-.248 2.352-2.28 7.751-15.712 7.751-1.907 0-3.467 1.56-3.467 3.467s1.56 3.467 3.467 3.467h3.857c.446-1.398 1.76-2.42 3.303-2.42z" transform="translate(51 -45) rotate(-20 197.383 -206.274) translate(14.4 25.6)"/>
                                <path fill="#96C8EF" d="M32.111 54.408c0-5.463 6.12-7.012 6.12-7.012H18.848s6.119 1.55 6.119 7.012v1.51c1.175.118 2.366.179 3.572.179s2.397-.061 3.572-.18v-1.509z" transform="translate(51 -45) rotate(-20 197.383 -206.274) translate(14.4 25.6)"/>
                                <path fill="#E7F4FF" d="M51.892 2.023c-.557-.997-1.61-1.615-2.752-1.615H7.94c-1.142 0-2.195.618-2.752 1.615C1.854 7.993.017 14.58.017 20.57c0 15.727 12.796 28.522 28.523 28.522 15.726 0 28.521-12.795 28.521-28.522 0-5.99-1.835-12.577-5.169-18.547z" transform="translate(51 -45) rotate(-20 197.383 -206.274) translate(14.4 25.6)"/>
                                <path fill="#B5E1FF" d="M19.033 20.57c0-5.99 1.836-12.577 5.169-18.546.557-.998 1.61-1.616 2.751-1.616H7.938c-1.142 0-2.195.618-2.752 1.616C1.853 7.993.017 14.579.017 20.57c0 15.727 12.795 28.522 28.522 28.522 3.332 0 6.532-.576 9.508-1.631-11.066-3.925-19.014-14.496-19.014-26.89z" transform="translate(51 -45) rotate(-20 197.383 -206.274) translate(14.4 25.6)"/>
                                <path fill="#D10026" d="M6.045 17.469c-.127 1.388-.19 2.422-.19 3.101 0 12.508 10.176 22.685 22.685 22.685 12.508 0 22.684-10.176 22.684-22.685 0-.638-.056-1.607-.167-2.908l-45.012-.193z" transform="translate(51 -45) rotate(-20 197.383 -206.274) translate(14.4 25.6)"/>
                                <path fill="#C20023" d="M5.855 20.57C12.639 35.693 20.2 43.255 28.54 43.255c.562 0 1.12-.021 1.672-.062-4.528-3.479-8.254-11.02-11.18-22.623H5.856z" transform="translate(51 -45) rotate(-20 197.383 -206.274) translate(14.4 25.6)"/>
                                <path fill="#B30020" d="M5.855 20.57c0 12.509 10.176 22.685 22.685 22.685 12.508 0 22.684-10.176 22.684-22.685 0-1.078-.073-2.175-.214-3.283H6.07c-.142 1.108-.215 2.205-.215 3.283z" transform="translate(51 -45) rotate(-20 197.383 -206.274) translate(14.4 25.6)"/>
                                <path fill="#A2001D" d="M6.07 17.286c-.142 1.109-.215 2.206-.215 3.284 0 12.508 10.177 22.684 22.685 22.684.562 0 1.12-.02 1.672-.062-6.791-5.217-11.179-13.415-11.179-22.622 0-1.078.062-2.175.178-3.284H6.07z" transform="translate(51 -45) rotate(-20 197.383 -206.274) translate(14.4 25.6)"/>
                                <path fill="#C70024" d="M33.348 29.444c-.46 0-.91-.186-1.237-.513-.327-.327-.514-.778-.514-1.238 0-.462.187-.913.514-1.24.327-.324.777-.51 1.237-.51.462 0 .913.186 1.24.51.324.327.511.778.511 1.24 0 .46-.187.91-.511 1.238-.327.326-.778.513-1.24.513zM41.215 24.75c-.46 0-.911-.187-1.238-.514-.327-.326-.514-.777-.514-1.237 0-.462.187-.913.514-1.24.327-.324.777-.511 1.238-.511.462 0 .913.187 1.24.511.324.327.51.778.51 1.24 0 .46-.186.91-.51 1.237-.328.327-.778.514-1.24.514zM25.643 26.025c-.46 0-.91-.187-1.238-.514-.327-.327-.513-.778-.513-1.237 0-.463.186-.913.513-1.24.327-.325.778-.511 1.238-.511.462 0 .913.186 1.24.51.324.328.51.778.51 1.24 0 .46-.186.911-.51 1.238-.327.327-.778.514-1.24.514zM36.296 37.114c-.46 0-.91-.187-1.238-.514-.326-.327-.513-.777-.513-1.237 0-.463.187-.913.513-1.24.327-.325.778-.511 1.238-.511.462 0 .913.186 1.24.511.324.327.511.778.511 1.24 0 .46-.187.91-.511 1.237-.327.327-.778.514-1.24.514z" transform="translate(51 -45) rotate(-20 197.383 -206.274) translate(14.4 25.6)"/>
                            </g>
                        </g>
                        <g>
                            <path d="M0 0H86.4V142.4H0z" transform="translate(51 -45) rotate(-20 151.46 -357.053)"/>
                            <g fill-rule="nonzero">
                                <path fill="#E7F4FF" d="M56.56 1.398C55.998.777 55.2.422 54.36.422H3.496c-.838 0-1.637.355-2.2.976C.733 2.02.46 2.851.545 3.685l5.635 55.98c.152 1.516 1.428 2.67 2.95 2.67h39.595c1.524 0 2.799-1.154 2.951-2.67l5.636-55.98c.083-.834-.19-1.665-.752-2.287z" transform="translate(51 -45) rotate(-20 151.46 -357.053) translate(14.4 67.2)"/>
                                <path fill="#B5E1FF" d="M18.327 59.665l-5.635-55.98c-.084-.834.189-1.665.75-2.287.563-.621 1.362-.976 2.2-.976H3.495c-.838 0-1.638.355-2.2.976C.733 2.02.46 2.851.545 3.685l5.634 55.98c.153 1.516 1.428 2.67 2.952 2.67h12.147c-1.523 0-2.799-1.154-2.951-2.67z" transform="translate(51 -45) rotate(-20 151.46 -357.053) translate(14.4 67.2)"/>
                                <path fill="#FFAC00" d="M48.96 31.453c-.426-.47-1.03-.739-1.665-.739H10.561c-.635 0-1.24.269-1.665.74-.426.47-.632 1.098-.569 1.73l2.461 22.076c.115 1.147 1.08 2.02 2.233 2.02h31.813c1.152 0 2.118-.873 2.233-2.02l2.46-22.077c.065-.63-.142-1.26-.567-1.73z" transform="translate(51 -45) rotate(-20 151.46 -357.053) translate(14.4 67.2)"/>
                                <path fill="#FC9505" d="M22.108 55.26l-2.46-22.077c-.064-.63.142-1.26.568-1.73.426-.47 1.03-.739 1.665-.739H10.56c-.635 0-1.24.269-1.665.74-.425.47-.632 1.098-.569 1.73l2.461 22.077c.116 1.146 1.08 2.02 2.233 2.02h11.32c-1.152 0-2.117-.874-2.233-2.02z" transform="translate(51 -45) rotate(-20 151.46 -357.053) translate(14.4 67.2)"/>
                                <path fill="#E6F6FF" d="M25.232 41.277l-8.4-8.4c-1.189-1.19-1.189-3.136 0-4.326l8.4-8.399c1.19-1.19 3.137-1.19 4.327 0l8.398 8.399c1.19 1.19 1.19 3.137 0 4.327l-8.398 8.399c-1.19 1.19-3.138 1.19-4.327 0z" transform="translate(51 -45) rotate(-20 151.46 -357.053) translate(14.4 67.2)"/>
                                <path fill="#FFB64F" d="M39.094 31.073c-.358-.23-.777-.359-1.211-.359H15.666c0 .616.234 1.23.7 1.698l9.331 9.33c.934.934 2.462.934 3.396 0l9.33-9.33c.376-.376.598-.849.671-1.34z" transform="translate(51 -45) rotate(-20 151.46 -357.053) translate(14.4 67.2)"/>
                                <path fill="#FFF" d="M34.644 41.277l-8.4-8.4c-1.189-1.19-1.189-3.136 0-4.326l8.4-8.399c1.19-1.19 3.137-1.19 4.326 0l8.4 8.399c1.19 1.19 1.19 3.137 0 4.327l-8.4 8.399c-1.19 1.19-3.137 1.19-4.326 0z" transform="translate(51 -45) rotate(-20 151.46 -357.053) translate(14.4 67.2)"/>
                                <path fill="#FFC471" d="M48.506 31.073c-.358-.23-.777-.359-1.211-.359H25.079c0 .616.233 1.23.7 1.698l9.33 9.33c.934.934 2.462.934 3.395 0l9.331-9.33c.376-.376.598-.849.671-1.34z" transform="translate(51 -45) rotate(-20 151.46 -357.053) translate(14.4 67.2)"/>
                                <path fill="#FC9505" d="M43.618 44.492c-.661-.086-1.147-.659-1.08-1.322l.076-.762c.067-.663.658-1.146 1.323-1.08.663.067 1.147.659 1.08 1.322l-.076.762c-.063.622-.339 1.209-1.323 1.08zM42.819 53.657c-.04 0-.082-.002-.123-.006-.664-.067-1.147-.659-1.08-1.323l.577-5.735c.067-.663.659-1.147 1.322-1.08.664.067 1.148.659 1.081 1.322l-.577 5.735c-.063.623-.588 1.087-1.2 1.087z" transform="translate(51 -45) rotate(-20 151.46 -357.053) translate(14.4 67.2)"/>
                            </g>
                        </g>
                    </g>
                </g>
            </g>
        </g>
    </g>
</svg>
