<svg xmlns="http://www.w3.org/2000/svg" width="342" height="247" viewBox="0 0 342 247">
    <g fill="none" fill-rule="evenodd">
        <g>
            <g>
                <g>
                    <g>
                        <path d="M0 0H112.782V185.881H0z" transform="translate(-89 -306) translate(70 147) translate(19 159) rotate(20 -36.202 193.692)"/>
                        <g fill-rule="nonzero">
                            <path fill="#E7F4FF" d="M69.406 0H9.024C4.081 0 .037 7.733.037 16.794v58.693c0 5.254 1.361 9.95 3.467 12.972.426.612 4.677 4.79 4.677 17.919v28.831c0 9.062 4.045 16.475 8.988 16.475h44.093c4.943 0 8.987-7.413 8.987-16.475v-28.831c0-13.129 4.25-17.307 4.677-17.919 2.106-3.022 3.467-7.718 3.467-12.972V16.795C78.393 7.733 74.35 0 69.406 0z" transform="translate(-89 -306) translate(70 147) translate(19 159) rotate(20 -36.202 193.692) translate(16.708 16.708)"/>
                            <path fill="#B5E1FF" d="M35.311 135.21v-28.832c0-13.128-4.25-17.307-4.677-17.918-2.106-3.022-3.467-7.72-3.467-12.973V16.794C27.167 7.733 31.211 0 36.154 0H9.024C4.081 0 .037 7.733.037 16.794v58.693c0 5.254 1.361 9.95 3.467 12.973.426.611 4.677 4.79 4.677 17.918v28.831c0 9.062 4.045 16.475 8.988 16.475h27.13c-4.943 0-8.988-7.413-8.988-16.475z" transform="translate(-89 -306) translate(70 147) translate(19 159) rotate(20 -36.202 193.692) translate(16.708 16.708)"/>
                            <path fill="#96C8EF" d="M39.215 122.945c-5.87 0-10.672 4.802-10.672 10.672v18.067h21.345v-18.067c0-5.87-4.803-10.672-10.673-10.672z" transform="translate(-89 -306) translate(70 147) translate(19 159) rotate(20 -36.202 193.692) translate(16.708 16.708)"/>
                            <path fill="#FFC905" d="M5.935 59.037v18.237c0 1.736.4 3.368 1.102 4.512 4.542 5.95 7.042 15.833 7.042 27.856v30.21c0 3.217 1.415 5.935 3.09 5.935h44.093c1.675 0 3.09-2.717 3.09-5.934v-30.21c0-12.023 2.499-21.907 7.04-27.856.703-1.147 1.104-2.778 1.104-4.513V59.037H5.935z" transform="translate(-89 -306) translate(70 147) translate(19 159) rotate(20 -36.202 193.692) translate(16.708 16.708)"/>
                            <path fill="#F08E00" fill-opacity=".379" d="M5.935 63.483v13.79c0 1.737.4 3.369 1.102 4.513 4.542 5.95 7.042 15.833 7.042 27.856v30.21c0 3.217 1.415 5.935 3.09 5.935h18.693c-.356-1.853-.55-3.852-.55-5.934v-37.468c0-13.756-4.252-18.135-4.678-18.775-2.106-3.167-3.467-8.088-3.467-13.593v-6.534H5.935z" transform="translate(-89 -306) translate(70 147) translate(19 159) rotate(20 -36.202 193.692) translate(16.708 16.708)"/>
                            <path fill="#E46609" d="M14.08 133.488v6.365c0 3.216 1.414 5.934 3.089 5.934h44.093c1.675 0 3.09-2.717 3.09-5.934v-6.365H14.078z" transform="translate(-89 -306) translate(70 147) translate(19 159) rotate(20 -36.202 193.692) translate(16.708 16.708)"/>
                            <path fill="#FFF4EA" d="M69.286 56.64H9.144c-2.443 0-3.21 1.678-3.21 2.54v5.926h66.562v-5.938c0-1.398-1.437-2.528-3.21-2.528z" transform="translate(-89 -306) translate(70 147) translate(19 159) rotate(20 -36.202 193.692) translate(16.708 16.708)"/>
                        </g>
                    </g>
                    <g>
                        <path d="M0 0H112.782V185.881H0z" transform="translate(-89 -306) translate(70 147) translate(19 159) rotate(-20 257.653 -269.258)"/>
                        <g fill-rule="nonzero">
                            <path fill="#D1E7F8" d="M62.425 125.875c-17.516 0-20.18-7.035-20.508-10.109V71.022c0-7.131 7.987-9.154 7.987-9.154h-25.3s7.988 2.023 7.988 9.154v44.735c-.324 3.07-2.976 10.118-20.51 10.118-2.489 0-4.525 2.036-4.525 4.525 0 2.49 2.036 4.526 4.525 4.526h50.345c2.489 0 4.525-2.037 4.525-4.526 0-4.387-4.527-4.525-4.527-4.525z" transform="translate(-89 -306) translate(70 147) translate(19 159) rotate(-20 257.653 -269.258) translate(18.797 33.417)"/>
                            <path fill="#96C8EF" d="M21.428 131.768c17.535 0 20.14-7.497 20.465-10.566l.024-50.18c0-7.131 7.987-9.154 7.987-9.154h-25.3s7.988 2.023 7.988 9.154v44.735c-.324 3.07-2.976 10.118-20.51 10.118-2.489 0-4.525 2.036-4.525 4.525 0 2.49 2.036 4.526 4.525 4.526h5.035c.583-1.826 2.299-3.158 4.311-3.158z" transform="translate(-89 -306) translate(70 147) translate(19 159) rotate(-20 257.653 -269.258) translate(18.797 33.417)"/>
                            <path fill="#96C8EF" d="M41.916 71.022c0-7.131 7.988-9.154 7.988-9.154h-25.3s7.987 2.023 7.987 9.154v1.97c1.534.154 3.09.233 4.663.233 1.574 0 3.13-.08 4.663-.233v-1.97z" transform="translate(-89 -306) translate(70 147) translate(19 159) rotate(-20 257.653 -269.258) translate(18.797 33.417)"/>
                            <path fill="#E7F4FF" d="M67.737 2.641C67.01 1.34 65.636.533 64.145.533H10.363c-1.491 0-2.865.806-3.592 2.108C2.42 10.433.023 19.031.023 26.851c0 20.53 16.702 37.23 37.23 37.23 20.53 0 37.231-16.701 37.231-37.23 0-7.82-2.396-16.418-6.747-24.21z" transform="translate(-89 -306) translate(70 147) translate(19 159) rotate(-20 257.653 -269.258) translate(18.797 33.417)"/>
                            <path fill="#B5E1FF" d="M24.844 26.851c0-7.82 2.397-16.418 6.748-24.21.726-1.301 2.1-2.108 3.591-2.108h-24.82c-1.492 0-2.866.807-3.593 2.108C2.42 10.433.023 19.031.023 26.851c0 20.53 16.701 37.231 37.23 37.231 4.35 0 8.527-.752 12.41-2.13-14.444-5.122-24.819-18.921-24.819-35.1z" transform="translate(-89 -306) translate(70 147) translate(19 159) rotate(-20 257.653 -269.258) translate(18.797 33.417)"/>
                            <path fill="#D10026" d="M7.89 22.803c-.165 1.812-.247 3.161-.247 4.048 0 16.328 13.283 29.611 29.61 29.611 16.329 0 29.612-13.283 29.612-29.61 0-.833-.073-2.099-.218-3.798L7.89 22.803z" transform="translate(-89 -306) translate(70 147) translate(19 159) rotate(-20 257.653 -269.258) translate(18.797 33.417)"/>
                            <path fill="#C20023" d="M7.643 26.851c8.855 19.741 18.726 29.611 29.61 29.611.735 0 1.463-.027 2.184-.08-5.91-4.541-10.774-14.385-14.593-29.53H7.643z" transform="translate(-89 -306) translate(70 147) translate(19 159) rotate(-20 257.653 -269.258) translate(18.797 33.417)"/>
                            <path fill="#B30020" d="M7.643 26.851c0 16.328 13.283 29.611 29.61 29.611 16.329 0 29.612-13.283 29.612-29.61 0-1.408-.095-2.84-.28-4.287H7.924c-.184 1.447-.28 2.879-.28 4.286z" transform="translate(-89 -306) translate(70 147) translate(19 159) rotate(-20 257.653 -269.258) translate(18.797 33.417)"/>
                            <path fill="#A2001D" d="M7.923 22.564c-.184 1.447-.28 2.88-.28 4.287 0 16.327 13.284 29.61 29.611 29.61.735 0 1.462-.027 2.183-.08-8.865-6.81-14.592-17.512-14.592-29.53 0-1.407.08-2.839.233-4.287H7.923z" transform="translate(-89 -306) translate(70 147) translate(19 159) rotate(-20 257.653 -269.258) translate(18.797 33.417)"/>
                            <path fill="#C70024" d="M43.53 38.435c-.6 0-1.188-.244-1.615-.67-.426-.427-.67-1.016-.67-1.616 0-.603.244-1.192.67-1.618.427-.424 1.015-.668 1.616-.668.603 0 1.192.244 1.618.668.424.427.667 1.015.667 1.618 0 .6-.243 1.189-.667 1.615-.426.427-1.015.671-1.618.671zM53.8 32.308c-.601 0-1.19-.244-1.616-.671-.427-.427-.67-1.015-.67-1.615 0-.604.243-1.192.67-1.619.426-.423 1.015-.667 1.615-.667.604 0 1.192.244 1.618.667.424.427.668 1.015.668 1.619 0 .6-.244 1.188-.668 1.615-.426.427-1.014.67-1.618.67zM33.473 33.971c-.6 0-1.189-.244-1.616-.67-.426-.427-.67-1.015-.67-1.616 0-.603.244-1.192.67-1.618.427-.423 1.015-.667 1.616-.667.603 0 1.192.244 1.618.667.424.427.667 1.015.667 1.618 0 .6-.243 1.189-.667 1.616-.426.426-1.015.67-1.618.67zM47.379 48.446c-.6 0-1.189-.243-1.616-.67-.426-.427-.67-1.015-.67-1.616 0-.603.244-1.191.67-1.618.427-.423 1.015-.667 1.616-.667.603 0 1.192.244 1.618.667.424.427.667 1.015.667 1.618 0 .6-.243 1.19-.667 1.616-.427.427-1.015.67-1.618.67z" transform="translate(-89 -306) translate(70 147) translate(19 159) rotate(-20 257.653 -269.258) translate(18.797 33.417)"/>
                        </g>
                    </g>
                    <g>
                        <path d="M0 0H112.782V185.881H0z" transform="translate(-89 -306) translate(70 147) translate(19 159) rotate(-20 197.706 -466.077)"/>
                        <g fill-rule="nonzero">
                            <path fill="#E7F4FF" d="M73.83 1.825c-.733-.811-1.777-1.274-2.87-1.274H4.561c-1.094 0-2.137.463-2.871 1.274-.734.812-1.09 1.896-.98 2.985l7.356 73.074c.199 1.978 1.864 3.483 3.852 3.483h51.684c1.989 0 3.653-1.505 3.853-3.483L74.812 4.81c.109-1.089-.248-2.173-.981-2.985z" transform="translate(-89 -306) translate(70 147) translate(19 159) rotate(-20 197.706 -466.077) translate(18.797 87.72)"/>
                            <path fill="#B5E1FF" d="M23.923 77.884L16.567 4.81c-.11-1.089.247-2.173.98-2.985.734-.811 1.778-1.274 2.872-1.274H4.562c-1.094 0-2.137.463-2.871 1.274C.957 2.637.6 3.721.71 4.81l7.355 73.074c.2 1.978 1.864 3.484 3.852 3.484h15.857c-1.988 0-3.653-1.506-3.852-3.484z" transform="translate(-89 -306) translate(70 147) translate(19 159) rotate(-20 197.706 -466.077) translate(18.797 87.72)"/>
                            <path fill="#FFAC00" d="M63.909 41.057c-.555-.614-1.345-.964-2.173-.964h-47.95c-.829 0-1.618.35-2.174.964-.555.614-.825 1.435-.742 2.259l3.212 28.818c.15 1.497 1.41 2.636 2.915 2.636h41.527c1.504 0 2.764-1.139 2.915-2.636l3.212-28.818c.083-.824-.187-1.645-.742-2.259z" transform="translate(-89 -306) translate(70 147) translate(19 159) rotate(-20 197.706 -466.077) translate(18.797 87.72)"/>
                            <path fill="#FC9505" d="M28.859 72.134l-3.212-28.818c-.083-.824.186-1.645.742-2.259.556-.614 1.345-.964 2.173-.964H13.786c-.829 0-1.618.35-2.173.964-.556.614-.825 1.435-.743 2.259l3.212 28.818c.15 1.497 1.41 2.637 2.915 2.637h14.777c-1.505 0-2.765-1.14-2.915-2.637z" transform="translate(-89 -306) translate(70 147) translate(19 159) rotate(-20 197.706 -466.077) translate(18.797 87.72)"/>
                            <path fill="#E6F6FF" d="M32.936 53.88L21.973 42.917c-1.553-1.553-1.553-4.095 0-5.648l10.963-10.964c1.553-1.553 4.095-1.553 5.648 0L49.547 37.27c1.554 1.553 1.554 4.095 0 5.648L38.584 53.88c-1.553 1.553-4.095 1.553-5.648 0z" transform="translate(-89 -306) translate(70 147) translate(19 159) rotate(-20 197.706 -466.077) translate(18.797 87.72)"/>
                            <path fill="#FFB64F" d="M51.031 40.56c-.468-.3-1.014-.467-1.58-.467h-29c0 .803.304 1.606.913 2.215l12.18 12.18c1.218 1.219 3.213 1.219 4.432 0l12.18-12.18c.49-.49.78-1.107.875-1.748z" transform="translate(-89 -306) translate(70 147) translate(19 159) rotate(-20 197.706 -466.077) translate(18.797 87.72)"/>
                            <path fill="#FFF" d="M45.222 53.88L34.259 42.917c-1.554-1.553-1.554-4.095 0-5.648l10.963-10.964c1.553-1.553 4.095-1.553 5.648 0L61.833 37.27c1.553 1.553 1.553 4.095 0 5.648L50.87 53.88c-1.553 1.553-4.095 1.553-5.648 0z" transform="translate(-89 -306) translate(70 147) translate(19 159) rotate(-20 197.706 -466.077) translate(18.797 87.72)"/>
                            <path fill="#FFC471" d="M63.317 40.56c-.468-.3-1.014-.467-1.581-.467h-29c0 .803.305 1.606.914 2.215l12.18 12.18c1.218 1.219 3.213 1.219 4.432 0l12.18-12.18c.49-.49.78-1.107.875-1.748z" transform="translate(-89 -306) translate(70 147) translate(19 159) rotate(-20 197.706 -466.077) translate(18.797 87.72)"/>
                            <path fill="#FC9505" d="M56.937 58.078c-.863-.113-1.498-.86-1.41-1.727l.1-.993c.087-.867.858-1.497 1.726-1.41.866.086 1.497.86 1.41 1.725l-.1.994c-.082.812-.442 1.579-1.726 1.41zM55.893 70.041c-.053 0-.106-.003-.16-.008-.866-.087-1.498-.86-1.41-1.726l.753-7.487c.088-.866.86-1.497 1.727-1.41.866.087 1.498.86 1.41 1.726l-.753 7.486c-.082.813-.767 1.419-1.567 1.419z" transform="translate(-89 -306) translate(70 147) translate(19 159) rotate(-20 197.706 -466.077) translate(18.797 87.72)"/>
                        </g>
                    </g>
                </g>
            </g>
        </g>
    </g>
</svg>
