<svg xmlns="http://www.w3.org/2000/svg" width="284" height="469" viewBox="0 0 284 469">
    <g fill="none" fill-rule="evenodd">
        <g>
            <path d="M0 0H284V469H0z"/>
            <g>
                <path fill="#FAA9A8" d="M37.57 69.181c3.084 1.408 6.484 2.244 10.096 2.244 3.604 0 7.004-.836 10.092-2.244v-12.72H37.57v12.72" transform="translate(92 22)"/>
                <path fill="#EB9392" d="M76.134 40.777c-.908 2.684-3.248 4.312-5.244 3.64-1.992-.656-2.876-3.38-1.972-6.072.904-2.676 3.252-4.32 5.236-3.644 2 .672 2.884 3.396 1.98 6.076M18.682 40.777c.904 2.684 3.252 4.312 5.248 3.64 1.984-.656 2.876-3.38 1.964-6.072-.896-2.676-3.244-4.32-5.232-3.644-2 .672-2.884 3.396-1.98 6.076" transform="translate(92 22)"/>
                <path fill="#FFF" stroke="#000" stroke-opacity=".038" stroke-width="2" d="M57.648 82.718c.987.237 9.11 2.408 16.678 10.947 5.884 6.632 11.4 17.074 13.058 33.359h0l-17.163 2.626-2.255 72.055-37.541-.925-3.747-72.183-18.547-2.684c7.01-36.041 27.925-42.723 29.573-43.196h0z" transform="translate(92 22)"/>
                <path fill="#E08C80" d="M47.666 6.213c13.452 0 24.356 10.9 24.356 24.356v12.72c0 9.858-5.848 18.34-14.263 22.174v16.254h-.318c-.512 2.878-4.747 5.368-9.903 5.368-5.155 0-9.39-2.49-9.899-5.368h-.069V65.463c-8.416-3.835-14.268-12.317-14.268-22.174v-12.72c0-13.456 10.912-24.356 24.364-24.356zM76.902 380.54c.021 4.253.197 14.559 1.396 16.849 2.36 4.5 12.9 7.388 14.24 14.852.712 3.988-1.772 8.568-8.556 5.736-1.016-.424-19.432-7.684-19.932-11.396-.58-4.36-1.98-19-2.836-27.884l.002.02c-2.984-14.445-6.46-32.238-7.366-40.88-1.968-18.868-6.788-75.68-6.788-75.68s-1.734 17.964-3.515 35.918l-.267 2.691c-1.098 11.044-2.183 21.741-2.858 27.879-1.157 10.452-4.944 32.969-7.923 50.052-.665 8.356-1.733 14.636-1.149 17.24.228 1.008 1.152 3.24-.876 7.624-.864 1.863-2.583 5.12-4.392 8.43l-.388.71-.39.708c-2.532 4.594-5.025 8.92-5.41 9.36-4.256 4.876-13.848 1.504-12.26-6.18 1.38-6.668 6.948-14.848 8.744-19.2.704-1.698 1.044-4.83 1.196-8.051V262.157l5.172-60.4H73.11l3.792 60.4z" transform="translate(92 22)"/>
                <path fill="#008EE3" d="M67.834 86.545c-3.296-2.168-5.456-3.34-6.768-3.7l-1.652 33.68H37.002L34.77 82.757c-1.276.416-3.288 1.64-6.356 3.828.028.38-6.04 51.232-5.364 59.732.74 9.248 5.26 22.56-2.508 46.7C9.558 227.121 6.954 333.489 6.954 333.489H90.67s-3.2-107.572-14.376-141.924c-5.948-18.248-3.6-33.824-3.4-46.024.436-26.08-5.104-58.54-5.06-58.996" transform="translate(92 22)"/>
                <path fill="#E08C80" d="M8.146 126.753l17.448 2.568-8.66 38.427 14.184 25.241c2.196 4.218-7.623 11.601-9.989 7.627l-.075-.135L.986 174.925c-.721-1.388-1.032-2.882-.975-4.342-.043-.857.044-1.705.28-2.502l7.855-41.328zM87.314 127.613l-15.656 2.144 4.576 40.868c.596 4.248 5.364 8.08 9.616 7.472 4.26-.596 7.22-4.532 6.616-8.796l-5.152-41.688" transform="translate(92 22)"/>
                <path fill="#0071B5" d="M36.158 196.185L23.746 206.529 19.914 201.905 32.338 191.565 36.158 196.185" transform="translate(92 22)"/>
                <path fill="#0080CD" d="M35.118 140.429v19.26c0 1.096.864 1.984 1.928 1.984h24.136c1.064 0 1.932-.888 1.932-1.984v-19.26H35.118" transform="translate(92 22)"/>
                <path fill="#0071B5" d="M33.714 143.445L64.514 143.445 64.514 138.365 33.714 138.365z" transform="translate(92 22)"/>
                <path fill="#EA006C" d="M82.12 131.233c-3.463-4.1-7.383-18.072-1.391-31.284 5.992-13.208 3.736-31.48.232-43.532-3.512-12.048-4.908-29.92-4.908-29.92l-.012.076c-.004-7.332-2.62-15.288-13.152-21.06C39.48-7.335 28.585 9.077 28.585 9.077c-5.488-.272-7.92 4.664-9.216 11.236l-.012-.072.012.096c-.324 1.596-.592 3.256-.796 4.996-.164 1.388.072 3.412.456 5.54-.588 5.168-1.912 11.724-4.804 18.564C6.12 68.601 12.6 82.581 20.709 91.145c13.084 13.828 3.612 25.84-2.192 35.572-5.804 9.732-1.576 23.976 7.84 27.448 9.42 3.48 22.6-2.112 19.36-13.428-2.944-10.252-3.464-17.612-.448-26.652 3.028-9.036-.176-27.928-7.784-32.84l.096-15.98S26.989 61.533 23.7 46.837c0 0-.456-6.772 5.392-10.132 5.272-3.02 4.572-6.336 4.5-8.772 1.44 1.812 3.884 2.796 8.012 1.324 8.776-3.12 11.424 8.448 22.696 8.448 3.58 0 7.012 7.004 7.012 7.004-3.4 16.592-13.996 20.544-13.996 20.544v15.992c4.168 3.292 4.272 15.512 2.792 25.652-2.804 19.116 4.632 38.468 11.232 40.096 6.608 1.616 18.424-6.728 10.78-15.76" transform="translate(92 22)"/>
                <path fill="#E08C80" d="M66.482 120.976c4.48.26 7.908 4.096 7.656 8.568l-6.628 43.692s2.08.773 1.792 3.172c-.23 1.909-3.39 4.715-5.6 6.87-1.99 1.938-4.21.36-3.808-2.42l.019-.123-.123.111c-.677.632-.916 1.188-1.816 1.09-2.808-.308 2.728-9.156 2.728-9.156l-2.78-44.152c.24-4.48 4.076-7.904 8.56-7.652zm-6.036 59.36c1.17-.744 2.65-5.168.689-2.38-.685.973-1.066 1.905-1.215 2.736l-.007.043.019-.016c.099-.085.207-.17.326-.256z" transform="translate(92 22) rotate(130 65.666 152.55)"/>
                <g fill-rule="nonzero">
                    <path fill="#B5E1FF" d="M24.696 47.091h-2.384c-2.073 0-2.263-2.172-2.277-2.738V32.386c.018-7.637 2.277-8.6 2.277-8.6h-6.951s2.277.97 2.277 8.693v11.857c-.01.538-.183 2.755-2.277 2.755h-2.384c-.915 0-1.664.75-1.664 1.665s.749 1.664 1.664 1.664h11.72c.915 0 1.664-.749 1.664-1.664 0-.916-.75-1.665-1.665-1.665z" transform="translate(92 22) translate(29 100)"/>
                    <path fill="#96C8EF" d="M15.36 47.091h-2.383c-.915 0-1.664.75-1.664 1.665s.749 1.664 1.664 1.664h2.566c-.915 0-1.664-.749-1.664-1.664 0-1.296 1.482-1.665 1.482-1.665z" transform="translate(92 22) translate(29 100)"/>
                    <path fill="#A7D7F7" d="M17.348 28.248c1.098.3 1.918.26 2.978 0 .614-3.876 1.986-4.462 1.986-4.462h-6.951s1.373.586 1.987 4.462z" transform="translate(92 22) translate(29 100)"/>
                    <path fill="#F4FAFE" d="M36.836 1.378C36.486.735 35.813.335 35.081.335H2.592c-.732 0-1.405.4-1.755 1.043-.35.643-.32 1.426.079 2.04l10.775 16.628c.362.582 3.137 4.809 7.146 4.809 4.008 0 6.783-4.227 7.146-4.81L36.757 3.419c.398-.614.428-1.397.079-2.04z" transform="translate(92 22) translate(29 100)"/>
                    <path fill="#B5E1FF" d="M20.882 20.046L10.107 3.418c-.398-.614-.428-1.397-.078-2.04S11.05.335 11.783.335h-9.19c-.733 0-1.406.4-1.756 1.043-.35.643-.32 1.426.079 2.04l10.775 16.628c.362.582 3.137 4.809 7.146 4.809 1.825 0 3.393-.877 4.595-1.886-1.438-1.208-2.353-2.606-2.55-2.923z" transform="translate(92 22) translate(29 100)"/>
                    <path fill="#FFD232" d="M32.85 3.395c-.268-.493-.784-.8-1.345-.8H6.169c-.561 0-1.077.307-1.346.8-.267.493-.244 1.093.06 1.564l8.578 13.236s2.067 3.732 5.376 3.732c2.963 0 5.126-3.331 5.362-3.71l8.59-13.258c.306-.47.329-1.07.06-1.564z" transform="translate(92 22) translate(29 100)"/>
                    <path fill="#F3B209" d="M4.823 3.395c-.267.493-.244 1.093.06 1.564l8.578 13.236s2.067 3.732 5.376 3.732c1.016 0 1.939-.392 2.722-.923-.357-.459-.589-.817-.677-.958L10.107 3.418c-.164-.253-.264-.534-.302-.823H6.169c-.561 0-1.078.307-1.346.8zM25.508 9.736c-.416-.25-.524-.807-.26-1.215l.483-.744c.263-.407.807-.523 1.214-.26.407.265.524.808.26 1.216l-.483.744c-.168.26-.644.602-1.214.26zM22.066 15.049c-.395-.283-.524-.808-.26-1.215l2.173-3.354c.264-.407.808-.523 1.215-.26.407.264.523.808.26 1.215L23.28 14.79c-.168.26-.735.603-1.214.26z" transform="translate(92 22) translate(29 100)"/>
                </g>
                <path fill="#96C8EF" fill-rule="nonzero" d="M46.5 129.552L48.488 128.458 49.116 140.905 47.368 140.033z" transform="translate(92 22)"/>
                <path fill="#E08C80" d="M43.351 141.363c-.225-.282 1.165-3.595 4.17-9.938.27-.57.953-.813 1.523-.543.444.21.704.681.645 1.169-.229 1.909-5.765 10.03-6.338 9.312z" transform="translate(92 22) rotate(149 46.53 135.588)"/>
                <path fill="#E08C80" d="M49.845 134.744c-1.064 1.248-4.188 4.595-5.328 4.47-2.808-.307 2.897-9.772 2.897-9.772l6.808.456s-3.496 3.813-4.377 4.846z" transform="translate(92 22) rotate(130 48.981 134.33)"/>
            </g>
        </g>
    </g>
</svg>
