<svg xmlns="http://www.w3.org/2000/svg" width="22" height="22" viewBox="0 0 22 22">
    <g fill="none" fill-rule="evenodd">
        <g fill="#EA006C">
            <g>
                <g>
                    <path d="M11.314 3.314c1.104 0 2 .895 2 2v4h4c1.104 0 2 .895 2 2 0 1.104-.896 2-2 2h-4v4c0 1.104-.896 2-2 2-1.105 0-2-.896-2-2v-4h-4c-1.105 0-2-.896-2-2 0-1.105.895-2 2-2h4v-4c0-1.105.895-2 2-2z" transform="translate(-682 -345) translate(494 339) translate(188 6) rotate(45 11.314 11.314)"/>
                </g>
            </g>
        </g>
    </g>
</svg>
