<svg xmlns="http://www.w3.org/2000/svg" width="284" height="469" viewBox="0 0 284 469">
    <g fill="none" fill-rule="evenodd">
        <g>
            <path d="M0 0H284V469H0z"/>
            <g transform="translate(54 6)">
                <rect width="20" height="442" x="153" fill="#534B4E" rx="4"/>
                <path fill="#EA006C" d="M129.5 20H172c2.209 0 4 1.79 4 4v5c0 2.21-1.791 4-4 4h-25.788l-17.35-5.15c-1.698-.504-2.862-2.064-2.862-3.835V23.5c0-1.933 1.567-3.5 3.5-3.5z"/>
                <path fill="#FEF4F9" d="M153 424h12c.552 0 1 .448 1 1s-.448 1-1 1h-12v-2zM153 386h12c.552 0 1 .448 1 1s-.448 1-1 1h-12v-2zM153 348h12c.552 0 1 .448 1 1s-.448 1-1 1h-12v-2zM153 310h12c.552 0 1 .448 1 1s-.448 1-1 1h-12v-2zM153 272h12c.552 0 1 .448 1 1s-.448 1-1 1h-12v-2zM153 234h12c.552 0 1 .448 1 1s-.448 1-1 1h-12v-2zM153 196h12c.552 0 1 .448 1 1s-.448 1-1 1h-12v-2zM153 82h12c.552 0 1 .448 1 1s-.448 1-1 1h-12v-2zM153 44h12c.552 0 1 .448 1 1s-.448 1-1 1h-12v-2zM158 71c.552 0 1 .448 1 1s-.448 1-1 1h-5v-2h5zm0-8c.552 0 1 .448 1 1s-.448 1-1 1h-5v-2h5zm0-8c.552 0 1 .448 1 1s-.448 1-1 1h-5v-2h5zM158 109c.552 0 1 .448 1 1s-.448 1-1 1h-5v-2h5zm0-8c.552 0 1 .448 1 1s-.448 1-1 1h-5v-2h5zm0-8c.552 0 1 .448 1 1s-.448 1-1 1h-5v-2h5zM158 147c.552 0 1 .448 1 1s-.448 1-1 1h-5v-2h5zm0-8c.552 0 1 .448 1 1s-.448 1-1 1h-5v-2h5zm0-8c.552 0 1 .448 1 1s-.448 1-1 1h-5v-2h5zM158 185c.552 0 1 .448 1 1s-.448 1-1 1h-5v-2h5zm0-8c.552 0 1 .448 1 1s-.448 1-1 1h-5v-2h5zm0-8c.552 0 1 .448 1 1s-.448 1-1 1h-5v-2h5zM158 223c.552 0 1 .448 1 1s-.448 1-1 1h-5v-2h5zm0-8c.552 0 1 .448 1 1s-.448 1-1 1h-5v-2h5zm0-8c.552 0 1 .448 1 1s-.448 1-1 1h-5v-2h5zM158 261c.552 0 1 .448 1 1s-.448 1-1 1h-5v-2h5zm0-8c.552 0 1 .448 1 1s-.448 1-1 1h-5v-2h5zm0-8c.552 0 1 .448 1 1s-.448 1-1 1h-5v-2h5zM158 299c.552 0 1 .448 1 1s-.448 1-1 1h-5v-2h5zm0-8c.552 0 1 .448 1 1s-.448 1-1 1h-5v-2h5zm0-8c.552 0 1 .448 1 1s-.448 1-1 1h-5v-2h5zM158 337c.552 0 1 .448 1 1s-.448 1-1 1h-5v-2h5zm0-8c.552 0 1 .448 1 1s-.448 1-1 1h-5v-2h5zm0-8c.552 0 1 .448 1 1s-.448 1-1 1h-5v-2h5zM158 375c.552 0 1 .448 1 1s-.448 1-1 1h-5v-2h5zm0-8c.552 0 1 .448 1 1s-.448 1-1 1h-5v-2h5zm0-8c.552 0 1 .448 1 1s-.448 1-1 1h-5v-2h5zM158 413c.552 0 1 .448 1 1s-.448 1-1 1h-5v-2h5zm0-8c.552 0 1 .448 1 1s-.448 1-1 1h-5v-2h5zm0-8c.552 0 1 .448 1 1s-.448 1-1 1h-5v-2h5zM153 120h12c.552 0 1 .448 1 1s-.448 1-1 1h-12v-2zM153 158h12c.552 0 1 .448 1 1s-.448 1-1 1h-12v-2z"/>
                <path fill="#FDD" d="M87.314 143.613l5.152 41.688c.156 1.1.075 2.179-.205 3.184l-6.379 42.04s6.448 8.652-3.148 20.332c-2.492 3.032-5.94 1.644-2.664-6.4 2.208-5.448 1.764-9.108-1.252-6.832-1.212.924-1.332 1.724-2.472 1.6-2.808-.308 2.728-9.156 2.728-9.156v-.001l-2.69-42.687c-.044-.174-.082-.349-.113-.525l-.037-.231-4.576-40.868 15.656-2.144z"/>
                <path fill="#FAA9A8" d="M37.57 85.181c3.084 1.408 6.484 2.244 10.096 2.244 3.604 0 7.004-.836 10.092-2.244v-12.72H37.57v12.72"/>
                <path fill="#EB9392" d="M76.134 56.777c-.908 2.684-3.248 4.312-5.244 3.64-1.992-.656-2.876-3.38-1.972-6.072.904-2.676 3.252-4.32 5.236-3.644 2 .672 2.884 3.396 1.98 6.076M18.682 56.777c.904 2.684 3.252 4.312 5.248 3.64 1.984-.656 2.876-3.38 1.964-6.072-.896-2.676-3.244-4.32-5.232-3.644-2 .672-2.884 3.396-1.98 6.076"/>
                <path fill="#FFF" stroke="#000" stroke-opacity=".038" stroke-width="2" d="M57.648 98.718c.987.237 9.11 2.408 16.678 10.947 5.884 6.632 11.4 17.074 13.058 33.359h0L70.22 145.65l-2.255 72.055-37.541-.925-3.747-72.183-18.547-2.684c7.01-36.041 27.925-42.723 29.573-43.196h0z"/>
                <path fill="#FDD" d="M47.666 22.213c13.452 0 24.356 10.9 24.356 24.356v12.72c0 9.858-5.848 18.34-14.263 22.174v16.254h-.318c-.512 2.878-4.748 5.368-9.903 5.368s-9.39-2.49-9.899-5.368h-.069V81.463c-8.416-3.835-14.268-12.317-14.268-22.174v-12.72c0-13.456 10.912-24.356 24.364-24.356zM76.902 396.54c.021 4.253.197 14.559 1.396 16.849 2.36 4.5 12.9 7.388 14.24 14.852.712 3.988-1.772 8.568-8.556 5.736-1.016-.424-19.432-7.684-19.932-11.396-.58-4.36-1.98-19-2.836-27.884l.002.02c-2.984-14.445-6.46-32.238-7.366-40.88-1.968-18.868-6.788-75.68-6.788-75.68s-1.734 17.964-3.515 35.918l-.267 2.691c-1.099 11.044-2.183 21.741-2.858 27.879-1.157 10.452-4.944 32.969-7.923 50.052-.665 8.356-1.733 14.636-1.149 17.24.228 1.008 1.152 3.24-.876 7.624-.864 1.863-2.584 5.12-4.392 8.43l-.388.71-.39.708c-2.532 4.594-5.025 8.92-5.41 9.36-4.256 4.876-13.848 1.504-12.26-6.18 1.38-6.668 6.948-14.848 8.744-19.2.704-1.698 1.044-4.83 1.196-8.051V278.157l5.172-60.4H73.11l3.792 60.4z"/>
                <path fill="#008EE3" d="M67.834 102.545c-3.296-2.168-5.456-3.34-6.768-3.7l-1.652 33.68H37.002L34.77 98.757c-1.276.416-3.288 1.64-6.356 3.828.028.38-6.04 51.232-5.364 59.732.74 9.248 5.26 22.56-2.508 46.7C9.558 243.121 6.954 349.489 6.954 349.489H90.67s-3.2-107.572-14.376-141.924c-5.948-18.248-3.6-33.824-3.4-46.024.436-26.08-5.104-58.54-5.06-58.996"/>
                <path fill="#FDD" d="M8.146 142.753l17.448 2.568-8.66 38.427 14.184 25.241c2.196 4.218-7.623 11.601-9.989 7.627l-.075-.135L.986 190.925c-.721-1.388-1.032-2.882-.975-4.342-.043-.857.044-1.705.28-2.502l7.855-41.328z"/>
                <path fill="#0071B5" d="M36.158 212.185L23.746 222.529 19.914 217.905 32.338 207.565 36.158 212.185"/>
                <path fill="#0080CD" d="M35.118 156.429v19.26c0 1.096.864 1.984 1.928 1.984h24.136c1.064 0 1.932-.888 1.932-1.984v-19.26H35.118"/>
                <path fill="#0071B5" d="M33.714 159.445L64.514 159.445 64.514 154.365 33.714 154.365z"/>
                <path fill="#EA006C" d="M82.12 147.233c-3.463-4.1-7.383-18.072-1.391-31.284 5.992-13.208 3.736-31.48.232-43.532-3.512-12.048-4.908-29.92-4.908-29.92l-.012.076c-.004-7.332-2.62-15.288-13.152-21.06-23.408-12.848-34.304 3.564-34.304 3.564-5.488-.272-7.92 4.664-9.216 11.236l-.012-.072.012.096c-.324 1.596-.592 3.256-.796 4.996-.164 1.388.072 3.412.456 5.54-.588 5.168-1.912 11.724-4.804 18.564-8.104 19.164-1.624 33.144 6.484 41.708 13.084 13.828 3.612 25.84-2.192 35.572-5.804 9.732-1.576 23.976 7.84 27.448 9.42 3.48 22.6-2.112 19.36-13.428-2.944-10.252-3.464-17.612-.448-26.652 3.028-9.036-.176-27.928-7.784-32.84l.096-15.98S26.989 77.533 23.7 62.837c0 0-.456-6.772 5.392-10.132 5.272-3.02 4.572-6.336 4.5-8.772 1.44 1.812 3.884 2.796 8.012 1.324 8.776-3.12 11.424 8.448 22.696 8.448 3.58 0 7.012 7.004 7.012 7.004-3.4 16.592-13.996 20.544-13.996 20.544v15.992c4.168 3.292 4.272 15.512 2.792 25.652-2.804 19.116 4.632 38.468 11.232 40.096 6.608 1.616 18.424-6.728 10.78-15.76"/>
            </g>
        </g>
    </g>
</svg>
