<?xml version="1.0" encoding="UTF-8"?>
<svg width="558px" height="110px" viewBox="0 0 558 110" version="1.1" xmlns="http://www.w3.org/2000/svg" xmlns:xlink="http://www.w3.org/1999/xlink">
    <title>Cards/Home Copy 5</title>
    <defs>
        <rect id="path-1" x="0" y="0" width="558" height="110"></rect>
        <path d="M107.021376,61.490688 L107.021376,15.290688 C107.021376,6.890688 100.130688,-1.1937118e-14 91.730688,-1.1937118e-14 L15.290688,-1.1937118e-14 C6.890688,-1.1937118e-14 -7.16227078e-14,6.890688 -7.16227078e-14,15.290688 L-7.16227078e-14,61.662048 C-7.16227078e-14,69.05136 5.210688,75.272736 12.265344,76.61136 L12.265344,90.222048 C12.265344,91.7314272 12.9347232,93.41136 14.116032,94.422048 C15.1266528,95.4326688 16.636032,95.9314272 17.981376,95.9314272 C19.4907552,95.9314272 21.00672,95.262048 22.010688,94.2514272 L39.316368,76.9457472 L91.730688,76.9457472 C100.130688,76.9457472 107.021376,70.0616112 107.021376,61.4910912 L107.021376,61.490688 Z" id="path-3"></path>
        <filter x="-2.8%" y="-3.1%" width="105.6%" height="106.3%" filterUnits="objectBoundingBox" id="filter-4">
            <feOffset dx="0" dy="-6" in="SourceAlpha" result="shadowOffsetInner1"></feOffset>
            <feComposite in="shadowOffsetInner1" in2="SourceAlpha" operator="arithmetic" k2="-1" k3="1" result="shadowInnerInner1"></feComposite>
            <feColorMatrix values="0 0 0 0 0.917647059   0 0 0 0 0   0 0 0 0 0.423529412  0 0 0 1 0" type="matrix" in="shadowInnerInner1"></feColorMatrix>
        </filter>
        <path d="M55.446384,53.6026848 C56.7916944,53.6026848 57.795696,54.6133056 57.795696,55.9519968 L57.795696,59.9813088 C57.795696,61.3266192 56.7850752,62.3306208 55.446384,62.3306208 L49.231728,62.3306208 C47.8864176,62.3306208 46.882416,61.32 46.882416,59.9813088 L46.882416,55.9519968 C46.882416,54.6066864 47.8930368,53.6026848 49.231728,53.6026848 L55.446384,53.6026848 Z M52.5916608,14.1019536 C57.8023488,14.1019536 61.8316608,15.447264 64.6863168,17.9672976 C67.7116608,20.4872976 69.0570048,24.0179856 69.0570048,28.5526416 C69.890436,31.4204016 69.0504427,33.9404016 67.3704528,36.2898816 C65.690352,38.6392608 63.675696,40.3192608 61.155696,41.6646048 C59.8103856,42.5046048 58.806384,43.5152928 58.30104,44.6899488 C57.9663504,45.359328 57.7957296,46.3699488 57.6316608,47.3806368 C57.6316608,48.2206368 56.7916608,48.890016 55.9516608,48.890016 L48.3916608,48.890016 C47.38104,48.890016 46.5409728,48.050016 46.7116608,47.039328 C46.8822816,44.853984 47.38104,43.344672 48.22104,41.999328 C49.2316608,40.4899488 51.246384,38.810016 54.10104,36.78864 C55.6104192,35.94864 56.62104,34.773984 57.46104,33.42864 C58.30104,32.083296 58.6357296,30.573984 58.6357296,28.723296 C58.6357296,26.872608 58.1304192,25.533984 57.1263504,24.352608 C56.1157296,23.3419872 54.7770384,22.672608 52.9263504,22.672608 C51.4169712,22.672608 50.2356624,23.1779184 49.2316944,24.0179184 C48.5623152,24.5232288 48.2210736,25.3632288 47.886384,26.2032624 C47.5516944,27.2138832 46.5410736,28.0539504 45.366384,27.8832624 L38.311728,27.7126416 C37.471728,27.7126416 36.8023488,26.8726416 36.8023488,26.0326416 C37.1370384,22.3379856 38.4823488,19.4833296 41.0023488,17.4619536 C43.8570048,15.2766096 47.8930368,14.1019536 52.5916608,14.1019536 Z" id="path-5"></path>
        <filter x="-4.6%" y="-3.1%" width="109.2%" height="106.2%" filterUnits="objectBoundingBox" id="filter-6">
            <feOffset dx="0" dy="-3" in="SourceAlpha" result="shadowOffsetInner1"></feOffset>
            <feComposite in="shadowOffsetInner1" in2="SourceAlpha" operator="arithmetic" k2="-1" k3="1" result="shadowInnerInner1"></feComposite>
            <feColorMatrix values="0 0 0 0 0.709803922   0 0 0 0 0.882352941   0 0 0 0 1  0 0 0 1 0" type="matrix" in="shadowInnerInner1"></feColorMatrix>
        </filter>
        <path d="M147.341376,52.2499488 L118.106016,52.2499488 L118.106016,61.490688 C118.106016,76.105344 106.346016,87.865008 91.731696,87.865008 L55.611696,87.865008 L55.611696,113.905008 C55.611696,122.305008 62.502384,129.195696 70.902384,129.195696 L123.316704,129.195696 L140.622384,146.501376 C141.633005,147.511997 143.142384,148.181376 144.651696,148.181376 C146.161075,148.181376 147.506352,147.676066 148.51704,146.671997 C149.69173,145.661376 150.367728,143.981309 150.367728,142.471997 L150.367728,128.861309 C157.258416,127.35193 162.633072,121.301309 162.633072,113.911997 L162.62651,67.5406368 C162.62651,59.1406368 155.742374,52.2499488 147.342374,52.2499488 L147.341376,52.2499488 Z" id="path-7"></path>
        <filter x="-2.8%" y="-3.1%" width="105.6%" height="106.3%" filterUnits="objectBoundingBox" id="filter-8">
            <feOffset dx="0" dy="-6" in="SourceAlpha" result="shadowOffsetInner1"></feOffset>
            <feComposite in="shadowOffsetInner1" in2="SourceAlpha" operator="arithmetic" k2="-1" k3="1" result="shadowInnerInner1"></feComposite>
            <feColorMatrix values="0 0 0 0 0.917647059   0 0 0 0 0   0 0 0 0 0.423529412  0 0 0 1 0" type="matrix" in="shadowInnerInner1"></feColorMatrix>
        </filter>
    </defs>
    <g id="ðŸ¡-4.-Home" stroke="none" stroke-width="1" fill="none" fill-rule="evenodd">
        <g id="Art" transform="translate(-0.000000, 0.000000)">
            <mask id="mask-2" fill="white">
                <use xlink:href="#path-1"></use>
            </mask>
            <use id="Mask" fill="#FEF4F9" xlink:href="#path-1"></use>
            <g id="Group" mask="url(#mask-2)" fill-rule="nonzero">
                <g transform="translate(280.033333, 59.500000) rotate(-20.000000) translate(-280.033333, -59.500000) translate(198.533333, -15.000000)">
                    <g id="Shape">
                        <use fill="#FF4A9D" xlink:href="#path-3"></use>
                        <use fill="black" fill-opacity="1" filter="url(#filter-4)" xlink:href="#path-3"></use>
                    </g>
                    <g id="Combined-Shape">
                        <use fill="#F4FAFE" xlink:href="#path-5"></use>
                        <use fill="black" fill-opacity="1" filter="url(#filter-6)" xlink:href="#path-5"></use>
                    </g>
                    <g id="Path">
                        <use fill="#FF4A9D" xlink:href="#path-7"></use>
                        <use fill="black" fill-opacity="1" filter="url(#filter-8)" xlink:href="#path-7"></use>
                    </g>
                </g>
            </g>
        </g>
    </g>
</svg>