<svg xmlns="http://www.w3.org/2000/svg" width="284" height="469" viewBox="0 0 284 469">
    <g fill="none" fill-rule="evenodd">
        <g>
            <path d="M0 0H284V469H0z"/>
            <g transform="translate(92 22)">
                <path fill="#FAA9A8" d="M37.57 69.181c3.084 1.408 6.484 2.244 10.096 2.244 3.604 0 7.004-.836 10.092-2.244v-12.72H37.57v12.72"/>
                <path fill="#EB9392" d="M76.134 40.777c-.908 2.684-3.248 4.312-5.244 3.64-1.992-.656-2.876-3.38-1.972-6.072.904-2.676 3.252-4.32 5.236-3.644 2 .672 2.884 3.396 1.98 6.076M18.682 40.777c.904 2.684 3.252 4.312 5.248 3.64 1.984-.656 2.876-3.38 1.964-6.072-.896-2.676-3.244-4.32-5.232-3.644-2 .672-2.884 3.396-1.98 6.076"/>
                <path fill="#FFF" stroke="#000" stroke-opacity=".038" stroke-width="2" d="M57.648 82.718c.987.237 9.11 2.408 16.678 10.947 5.884 6.632 11.4 17.074 13.058 33.359h0l-17.163 2.626-2.255 72.055-37.541-.925-3.747-72.183-18.547-2.684c7.01-36.041 27.925-42.723 29.573-43.196h0z"/>
                <path fill="#FFB6B5" d="M47.666 6.213c13.452 0 24.356 10.9 24.356 24.356v12.72c0 9.858-5.848 18.34-14.263 22.174v16.254h-.318c-.512 2.878-4.747 5.368-9.903 5.368-5.155 0-9.39-2.49-9.899-5.368h-.069V65.463c-8.416-3.835-14.268-12.317-14.268-22.174v-12.72c0-13.456 10.912-24.356 24.364-24.356zM76.902 380.54c.021 4.253.197 14.559 1.396 16.849 2.36 4.5 12.9 7.388 14.24 14.852.712 3.988-1.772 8.568-8.556 5.736-1.016-.424-19.432-7.684-19.932-11.396-.58-4.36-1.98-19-2.836-27.884l.002.02c-2.984-14.445-6.46-32.238-7.366-40.88-1.968-18.868-6.788-75.68-6.788-75.68s-1.734 17.964-3.515 35.918l-.267 2.691c-1.098 11.044-2.183 21.741-2.858 27.879-1.157 10.452-4.944 32.969-7.923 50.052-.665 8.356-1.733 14.636-1.149 17.24.228 1.008 1.152 3.24-.876 7.624-.864 1.863-2.583 5.12-4.392 8.43l-.388.71-.39.708c-2.532 4.594-5.025 8.92-5.41 9.36-4.256 4.876-13.848 1.504-12.26-6.18 1.38-6.668 6.948-14.848 8.744-19.2.704-1.698 1.044-4.83 1.196-8.051V262.157l5.172-60.4H73.11l3.792 60.4z"/>
                <path fill="#008EE3" d="M67.834 86.545c-3.296-2.168-5.456-3.34-6.768-3.7l-1.652 33.68H37.002L34.77 82.757c-1.276.416-3.288 1.64-6.356 3.828.028.38-6.04 51.232-5.364 59.732.74 9.248 5.26 22.56-2.508 46.7C9.558 227.121 6.954 333.489 6.954 333.489H90.67s-3.2-107.572-14.376-141.924c-5.948-18.248-3.6-33.824-3.4-46.024.436-26.08-5.104-58.54-5.06-58.996"/>
                <path fill="#FFB6B5" d="M8.146 126.753l17.448 2.568-8.66 38.427 14.184 25.241c2.196 4.218-7.623 11.601-9.989 7.627l-.075-.135L.986 174.925c-.721-1.388-1.032-2.882-.975-4.342-.043-.857.044-1.705.28-2.502l7.855-41.328zM87.314 127.613l-15.656 2.144 4.576 40.868c.596 4.248 5.364 8.08 9.616 7.472 4.26-.596 7.22-4.532 6.616-8.796l-5.152-41.688"/>
                <path fill="#0071B5" d="M36.158 196.185L23.746 206.529 19.914 201.905 32.338 191.565 36.158 196.185"/>
                <path fill="#0080CD" d="M35.118 140.429v19.26c0 1.096.864 1.984 1.928 1.984h24.136c1.064 0 1.932-.888 1.932-1.984v-19.26H35.118"/>
                <path fill="#0071B5" d="M33.714 143.445L64.514 143.445 64.514 138.365 33.714 138.365z"/>
                <path fill="#EA006C" d="M82.12 131.233c-3.463-4.1-7.383-18.072-1.391-31.284 5.992-13.208 3.736-31.48.232-43.532-3.512-12.048-4.908-29.92-4.908-29.92l-.012.076c-.004-7.332-2.62-15.288-13.152-21.06C39.48-7.335 28.585 9.077 28.585 9.077c-5.488-.272-7.92 4.664-9.216 11.236l-.012-.072.012.096c-.324 1.596-.592 3.256-.796 4.996-.164 1.388.072 3.412.456 5.54-.588 5.168-1.912 11.724-4.804 18.564C6.12 68.601 12.6 82.581 20.709 91.145c13.084 13.828 3.612 25.84-2.192 35.572-5.804 9.732-1.576 23.976 7.84 27.448 9.42 3.48 22.6-2.112 19.36-13.428-2.944-10.252-3.464-17.612-.448-26.652 3.028-9.036-.176-27.928-7.784-32.84l.096-15.98S26.989 61.533 23.7 46.837c0 0-.456-6.772 5.392-10.132 5.272-3.02 4.572-6.336 4.5-8.772 1.44 1.812 3.884 2.796 8.012 1.324 8.776-3.12 11.424 8.448 22.696 8.448 3.58 0 7.012 7.004 7.012 7.004-3.4 16.592-13.996 20.544-13.996 20.544v15.992c4.168 3.292 4.272 15.512 2.792 25.652-2.804 19.116 4.632 38.468 11.232 40.096 6.608 1.616 18.424-6.728 10.78-15.76"/>
                <rect width="43" height="57" x="35" y="101" fill="#02EAF7" rx="4"/>
                <path fill="#008EE3" fill-rule="nonzero" d="M57.763 138.727l.001-.001-.18.072-.18.07-.205.027-.202.025-.2-.025-.202-.026h-.001l-.003-.001-.18-.071-.181-.071h-.001l-.15-.11-.154-.113-.117-.144-.12-.146.001.004-.079-.176-.075-.17-.054-.377.027-.19.027-.188-.001.005-.02.067c-.011.05-.02.1-.025.152l-.009.15.001.004-.001.002v.003c-.01.2.037.387.134.563.063.182.172.34.321.473.14.145.308.244.5.303.187.092.386.135.6.127l.412-.053c.264-.07.491-.197.686-.378l.243-.296.03-.054c-.014.032-.019.045-.041.08l-.243.296c-.012.01-.313.229-.323.235-.058.029-.158.062-.192.076-.193.076-.122.059-.193.076L57 139c-.022 0-.414-.05-.426-.053l-.08-.03c-.107-.041-.282-.112-.295-.119-.004-.003-.008-.003-.01-.006-.016-.011-.305-.22-.317-.232-.044-.05-.087-.1-.124-.153-.044-.049-.087-.1-.125-.152-.002 0-.002-.003-.002-.003l-.155-.35c0-.005-.003-.009-.003-.011l-.056-.39c0-.017.054-.385.056-.399l.003-.01c.087-.246.198-.478.407-.657l.32-.232.01-.002c.272-.132.485-.202.796-.202.14 0 .286.012.42.053.128.047.252.097.377.146.12.059.228.146.325.237.215.206.31.388.408.658l.002.01.006.035.006.014c.022.075.036.151.041.23v.09l.002.027c0 .053-.003.105-.009.156l-.007.04v.012c-.008.078-.017.124-.035.175l-.016.037-.01.036c-.017.049-.036.097-.059.144l-.046.083.017-.038.027-.062c.028-.063.05-.108.066-.147l.005-.016.033-.112.018-.112.007-.076.008-.118-.001-.029-.007-.073c-.005-.033-.01-.066-.018-.1l-.012-.098-.01-.063-.034-.095c-.016-.037-.033-.072-.052-.108-.063-.181-.172-.34-.321-.473-.14-.144-.308-.244-.5-.302-.187-.092-.386-.135-.6-.127l-.412.053c-.264.07-.491.197-.686.378l-.243.295c-.055.091-.1.185-.134.282l-.02.068-.001.005-.001.002.001-.003v.002l.077-.17.074-.168.122-.148.117-.144.155-.112.149-.111.183-.072.18-.071.204-.026.201-.026.202.026.201.025.001.001h.003l.181.073.18.07.151.11.153.113.119.145.118.143v-.002l.079.176.074.168v-.006l.028.195.027.19-.052.373c-.053.118-.106.235-.156.35l.003-.006-.24.292-.153.113-.151.11-.002.001zm1.437-14.803c-.195-.21-.41-.401-.644-.573l.164.128-.083-.055c-.159-.1-.323-.19-.493-.27l-.083-.037-.067-.024c-.176-.057-.356-.104-.538-.14l-.073-.013-.086-.008c-.198-.012-.396-.012-.594 0l-.073.007-.096.017c-.188.037-.373.086-.555.145l-.059.021-.098.044c-.168.081-.331.172-.488.272l-.055.036-.08.064c-.14.119-.274.245-.399.378l-.055.063-.057.074c-.11.155-.21.316-.3.483l-.044.088-.034.087c-.066.182-.12.367-.162.555l-.024.126-.012.18-.005.205c-.003.822-.708 1.432-1.554 1.467-.388.018-.83-.174-1.1-.428-.279-.267-.455-.663-.453-1.039.004-.974.261-1.921.74-2.784.453-.823 1.137-1.485 1.926-2.022.263-.179.547-.329.845-.452.416-.17.826-.325 1.274-.405.92-.162 1.845-.162 2.752.07 1.608.411 3.06 1.52 3.79 2.937.41.8.643 1.634.67 2.526.017.457-.046.922-.139 1.37-.09.44-.264.852-.457 1.262-.32.683-.823 1.327-1.42 1.82-.341.284-.711.551-1.112.757-.422.22-.878.352-1.32.522l.257-.095-.029.013-.099.054-.045.041.01-.013.008-.013-.01.006-.015.009-.009.011-.014.017-.007.018h.002l.036-.035-.057.094-.026.09-.002.038c-.008.17-.004.34 0 .51l.003.253v.936c0 .397-.177.749-.456 1.035-.282.288-.7.411-1.1.429-.389.017-.83-.174-1.1-.429-.28-.266-.453-.663-.453-1.038v-.605c0-.61-.031-1.218.087-1.819.062-.309.202-.613.36-.886.112-.194.265-.364.408-.534.068-.076.14-.154.217-.22.24-.21.514-.41.814-.538.314-.132.64-.226.957-.353l-.232.086.112-.049c.164-.078.322-.166.475-.263l.083-.056.06-.045c.148-.124.288-.257.42-.397l.051-.06.064-.083c.108-.152.206-.31.292-.473l.037-.076.04-.097c.066-.184.12-.371.162-.562l.017-.089-.019.19.056-.39-.036.19.01-.095c.014-.197.014-.394.002-.591l-.016-.153-.047-.209c-.039-.15-.085-.299-.14-.444l-.017-.042-.04-.083c-.088-.168-.189-.33-.3-.488l-.076-.101.145.166-.243-.296.097.129z"/>
                <g>
                    <path fill="#FFBEBE" d="M33.74-5.906c4.48.26 7.907 4.096 7.655 8.568l-6.628 43.692s.046.042.128.123l.079.08c1.317 1.345 8.149 9.162-2.7 16.802-2.139 1.506-8.224 1.17-6.925.42 1.146-.663 2.183-1.261 3.63-2.233 3.592-2.412 1.74-10.368-1.276-8.092-1.212.924-1.332 1.724-2.472 1.6-2.808-.308 2.728-9.156 2.728-9.156L25.18 1.746c.24-4.48 4.076-7.904 8.56-7.652z" transform="rotate(-10 771.308 -68.52) rotate(130 32.922 29.248)"/>
                    <path fill="#FFB6B5" d="M30.285 14.287c.24-4.48 4.076-7.904 8.56-7.652 4.48.26 7.908 4.096 7.656 8.568l-6.628 43.692c-.248 4.48-7.076 4.02-6.808-.456l-2.78-44.152" transform="rotate(-10 771.308 -68.52) rotate(130 38.4 34.328)"/>
                </g>
            </g>
        </g>
    </g>
</svg>
