<svg xmlns="http://www.w3.org/2000/svg" xmlns:xlink="http://www.w3.org/1999/xlink" width="284" height="469" viewBox="0 0 284 469">
    <defs>
        <rect id="bmy8lzlh4a" width="43" height="57" x="0" y="0" rx="4"/>
        <rect id="nde8y6yj1c" width="43" height="57" x="0" y="0" rx="4"/>
    </defs>
    <g fill="none" fill-rule="evenodd">
        <g>
            <path d="M0 0H284V469H0z"/>
            <g>
                <path fill="#FAA9A8" d="M37.57 69.181c3.084 1.408 6.484 2.244 10.096 2.244 3.604 0 7.004-.836 10.092-2.244v-12.72H37.57v12.72" transform="translate(92 22)"/>
                <path fill="#EB9392" d="M76.134 40.777c-.908 2.684-3.248 4.312-5.244 3.64-1.992-.656-2.876-3.38-1.972-6.072.904-2.676 3.252-4.32 5.236-3.644 2 .672 2.884 3.396 1.98 6.076M18.682 40.777c.904 2.684 3.252 4.312 5.248 3.64 1.984-.656 2.876-3.38 1.964-6.072-.896-2.676-3.244-4.32-5.232-3.644-2 .672-2.884 3.396-1.98 6.076" transform="translate(92 22)"/>
                <path fill="#FFF" stroke="#000" stroke-opacity=".038" stroke-width="2" d="M57.648 82.718c.987.237 9.11 2.408 16.678 10.947 5.884 6.632 11.4 17.074 13.058 33.359h0l-17.163 2.626-2.255 72.055-37.541-.925-3.747-72.183-18.547-2.684c7.01-36.041 27.925-42.723 29.573-43.196h0z" transform="translate(92 22)"/>
                <path fill="#E08C80" d="M47.666 6.213c13.452 0 24.356 10.9 24.356 24.356v12.72c0 9.858-5.848 18.34-14.263 22.174v16.254h-.318c-.512 2.878-4.747 5.368-9.903 5.368-5.155 0-9.39-2.49-9.899-5.368h-.069V65.463c-8.416-3.835-14.268-12.317-14.268-22.174v-12.72c0-13.456 10.912-24.356 24.364-24.356zM76.902 380.54c.021 4.253.197 14.559 1.396 16.849 2.36 4.5 12.9 7.388 14.24 14.852.712 3.988-1.772 8.568-8.556 5.736-1.016-.424-19.432-7.684-19.932-11.396-.58-4.36-1.98-19-2.836-27.884l.002.02c-2.984-14.445-6.46-32.238-7.366-40.88-1.968-18.868-6.788-75.68-6.788-75.68s-1.734 17.964-3.515 35.918l-.267 2.691c-1.098 11.044-2.183 21.741-2.858 27.879-1.157 10.452-4.944 32.969-7.923 50.052-.665 8.356-1.733 14.636-1.149 17.24.228 1.008 1.152 3.24-.876 7.624-.864 1.863-2.583 5.12-4.392 8.43l-.388.71-.39.708c-2.532 4.594-5.025 8.92-5.41 9.36-4.256 4.876-13.848 1.504-12.26-6.18 1.38-6.668 6.948-14.848 8.744-19.2.704-1.698 1.044-4.83 1.196-8.051V262.157l5.172-60.4H73.11l3.792 60.4z" transform="translate(92 22)"/>
                <path fill="#008EE3" d="M67.834 86.545c-3.296-2.168-5.456-3.34-6.768-3.7l-1.652 33.68H37.002L34.77 82.757c-1.276.416-3.288 1.64-6.356 3.828.028.38-6.04 51.232-5.364 59.732.74 9.248 5.26 22.56-2.508 46.7C9.558 227.121 6.954 333.489 6.954 333.489H90.67s-3.2-107.572-14.376-141.924c-5.948-18.248-3.6-33.824-3.4-46.024.436-26.08-5.104-58.54-5.06-58.996" transform="translate(92 22)"/>
                <path fill="#E08C80" d="M8.146 126.753l17.448 2.568-8.66 38.427 14.184 25.241c2.196 4.218-7.623 11.601-9.989 7.627l-.075-.135L.986 174.925c-.721-1.388-1.032-2.882-.975-4.342-.043-.857.044-1.705.28-2.502l7.855-41.328zM87.314 127.613l-15.656 2.144 4.576 40.868c.596 4.248 5.364 8.08 9.616 7.472 4.26-.596 7.22-4.532 6.616-8.796l-5.152-41.688" transform="translate(92 22)"/>
                <path fill="#0071B5" d="M36.158 196.185L23.746 206.529 19.914 201.905 32.338 191.565 36.158 196.185" transform="translate(92 22)"/>
                <path fill="#0080CD" d="M35.118 140.429v19.26c0 1.096.864 1.984 1.928 1.984h24.136c1.064 0 1.932-.888 1.932-1.984v-19.26H35.118" transform="translate(92 22)"/>
                <path fill="#0071B5" d="M33.714 143.445L64.514 143.445 64.514 138.365 33.714 138.365z" transform="translate(92 22)"/>
                <path fill="#EA006C" d="M82.12 131.233c-3.463-4.1-7.383-18.072-1.391-31.284 5.992-13.208 3.736-31.48.232-43.532-3.512-12.048-4.908-29.92-4.908-29.92l-.012.076c-.004-7.332-2.62-15.288-13.152-21.06C39.48-7.335 28.585 9.077 28.585 9.077c-5.488-.272-7.92 4.664-9.216 11.236l-.012-.072.012.096c-.324 1.596-.592 3.256-.796 4.996-.164 1.388.072 3.412.456 5.54-.588 5.168-1.912 11.724-4.804 18.564C6.12 68.601 12.6 82.581 20.709 91.145c13.084 13.828 3.612 25.84-2.192 35.572-5.804 9.732-1.576 23.976 7.84 27.448 9.42 3.48 22.6-2.112 19.36-13.428-2.944-10.252-3.464-17.612-.448-26.652 3.028-9.036-.176-27.928-7.784-32.84l.096-15.98S26.989 61.533 23.7 46.837c0 0-.456-6.772 5.392-10.132 5.272-3.02 4.572-6.336 4.5-8.772 1.44 1.812 3.884 2.796 8.012 1.324 8.776-3.12 11.424 8.448 22.696 8.448 3.58 0 7.012 7.004 7.012 7.004-3.4 16.592-13.996 20.544-13.996 20.544v15.992c4.168 3.292 4.272 15.512 2.792 25.652-2.804 19.116 4.632 38.468 11.232 40.096 6.608 1.616 18.424-6.728 10.78-15.76" transform="translate(92 22)"/>
                <g transform="translate(92 22) translate(35 101)">
                    <mask id="0q408eno0b" fill="#fff">
                        <use xlink:href="#bmy8lzlh4a"/>
                    </mask>
                    <use fill="#FFF" xlink:href="#bmy8lzlh4a"/>
                    <g mask="url(#0q408eno0b)">
                        <g>
                            <path fill="#EFA78C" d="M32.788.937c-.196 0-2.16-.458-3.795 1.112-1.635 1.57-1.112 3.533-.785 4.58.327 1.047.327 1.44.13 1.767-.195.326-1.177 1.373-1.308 1.7-.13.327 2.683 1.832 2.683 1.832l2.224-1.308s1.963 1.178 2.16 1.112c.196-.065.85-1.112 1.439-3.533.588-2.42.458-4.253-.328-5.627-.785-1.373-2.42-1.635-2.42-1.635" transform="translate(4 -16)"/>
                            <path stroke="#393454" stroke-width=".5" d="M31.479 6.171s-.327-.982-.916-.131c-.589.85-.392 1.505-.13 1.636l.261.13s-.13.655.262 1.44c.392.785.981 1.374.981 1.374" transform="translate(4 -16)"/>
                            <path fill="#393454" d="M35.735 3.97c-.115-.509-.287-.978-.527-1.398-.785-1.373-2.42-1.635-2.42-1.635-.196 0-2.16-.458-3.795 1.112-1.635 1.57-1.112 3.533-.785 4.58.242.774.304 1.19.24 1.486.429.036.985.032 1.526-.112.982-.262 1.178-1.374.982-1.767-.196-.392.327-.785.327-.785s.392 1.047.85.393c.459-.655-.327-1.57.459-2.094.784-.523 1.635-.523 2.616 0 .182.097.357.167.527.22" transform="translate(4 -16)"/>
                            <path fill="#393454" d="M35.735 3.97s.455.303 1.109-.547c.655-.85.655-2.355.13-1.963-.523.393-.719.59-.719.59S35.732-.24 35.012.02c-.72.263-.72.917-.72.917S32.92-.11 32.658.217c-.262.327-.458.458-.458.458s.13.066-.262.196c-.392.131-.72.59-.72.59s2.16.26 2.814.915c.654.655 1.704 1.595 1.704 1.595" transform="translate(4 -16)"/>
                            <path fill="#A4CCFF" d="M31.087 14.873s1.177.392 1.243 2.355c.065 1.962 1.57 7 1.57 7s1.767-1.963 2.094-2.355c.327-.392.98-.523 1.635.589.654 1.112.458 2.42-.523 3.99-.982 1.571-2.813 3.926-4.318 3.665-1.505-.262-3.991-4.776-4.057-5.3-.065-.523 1.178-5.823 1.374-6.673.196-.85.982-3.271.982-3.271" transform="translate(4 -16)"/>
                            <path fill="#FFB6B5" d="M16.693 33.78s-.916 1.244-.589 2.421c.327 1.178.85 2.29.85 2.29s-2.158 7-2.682 8.44c-.523 1.44-.13 1.57-1.505 2.42-1.373.851-4.383 2.029-5.364 5.17-.982 3.14-2.29 6.084-2.683 6.869-.392.785-.589 1.243-1.44 1.243-.85 0-2.289-.393-2.42.72-.131 1.112 0 2.748 0 3.14 0 .393-.981 1.047-.589 2.42.393 1.375 1.112 2.618 1.505 2.749.392.13 1.112-.066 1.178-.393.065-.327-.72-.85-.327-2.028.392-1.178 2.355-3.075 3.467-4.122 1.112-1.047 3.73-5.692 5.692-7.785 1.963-2.094 4.187-4.711 5.757-6.085 1.57-1.374 4.777-6.674 5.43-7.851.655-1.178 1.375-2.813 1.375-2.813s6.87 1.308 8.047 1.505c1.178.196 2.355.588 2.355.588s-2.028 1.766-2.551 4.515c-.524 2.747-1.701 7.72-2.29 9.355-.59 1.636-1.047 2.617-1.44 3.468-.392.85-1.046 1.963-.588 2.486.458.524 2.944.85 4.187 1.047 1.243.196 3.664.13 4.187-.327.523-.458.589-.72.262-.785-.327-.066-2.16-1.243-2.682-1.701-.524-.458-.916-1.243-.851-1.57.065-.328 3.01-6.805 4.318-9.422 1.308-2.617 2.748-7.196 3.14-8.243.393-1.047.524-1.244.131-1.767-.392-.523-2.813-2.355-6.87-4.58-4.056-2.224-6.28-2.29-7.523-2.486-1.243-.196-3.337-2.093-6.15-.85-2.814 1.243-3.337 1.962-3.337 1.962" transform="translate(4 -16)"/>
                            <path fill="#B5E1FF" fill-rule="nonzero" d="M31.283 14.218s.262 2.486-.196 5.954c-.458 3.468-2.944 8.636-3.14 9.879-.197 1.243.653 2.028.392 2.42-.262.393-.786.524-1.44.524-.654 0-3.206-.654-5.234-.261-2.028.392-4.253 2.224-4.71 2.028-.458-.197-1.178-.982-.72-1.767.458-.785.916-1.243 1.308-2.028.393-.785 2.356-7 2.814-9.028.458-2.029.262-4.384.196-6.02-.065-1.635 1.309-4.318 2.355-4.71 1.047-.393 3.991.392 4.319.392.326 0 3.467.982 4.056 2.617" transform="translate(4 -16)"/>
                            <path fill="#40A2CE" d="M29.713 13.695s1.504 1.897 1.7 1.766c.197-.13.917-.785.328-2.355-.59-1.57-1.963-2.617-3.402-3.86-1.44-1.243-2.944-3.14-3.926-2.028-.981 1.112-2.813 3.663-2.028 4.514.785.85 4.907 1.047 5.823 1.374.916.327 1.505.589 1.505.589" transform="translate(4 -16)"/>
                            <path fill="#FFB6B5" d="M13.422 27.434s.196.785.72 1.636c.523.85.785 1.766.457 2.093-.327.327-.327.327-1.635.72-1.309.393-1.832.13-1.963-.196-.13-.327.393-.72.393-.72s-.851-.196-.851-1.047c0-.85.262-2.551.262-2.551l2.552-.197.065.262" transform="translate(4 -16)"/>
                            <path fill="#689CDE" d="M10.347 26.06s-.065 1.309.327 1.636c.392.327 2.486 0 2.748-.262s.327-1.963.327-1.963l-3.402.59" transform="translate(4 -16)"/>
                            <path fill="#A4CCFF" d="M26.245 13.237s-.916-.982-2.29-1.44c-1.374-.458-5.692-.13-8.701.655-3.01.785-4.253.72-4.711 1.897-.458 1.177-1.178 10.337-1.047 11.384.131 1.047 2.225 1.112 3.206.85.982-.261 1.766-.915 2.094-2.29.327-1.373.262-6.28.72-6.804.457-.523 5.888-.196 7.392-.392 1.505-.196 2.552-.654 2.814-1.047" transform="translate(4 -16)"/>
                            <path fill="#689CDE" d="M36.844 21.415s-1.112.589-.916 1.57c.196.981 1.178 1.701 1.57 1.636.393-.066 1.178-1.112 1.178-1.112s.13-2.617-1.832-2.094" transform="translate(4 -16)"/>
                            <path fill="#FFB6B5" d="M36.713 22.135s.524 1.505 1.178 1.57c.654.065.981-.327 1.766-1.112.785-.785 1.57-1.374 1.57-2.421 0-1.047-.261-2.486-.85-2.552-.589-.065-1.047.131-1.047.131s-.196-.393-.785.065c-.589.459-.458.786-.785 1.374-.327.59-.392.851-.327 1.374.066.524.066.72.066.72l-.786.85" transform="translate(4 -16)"/>
                            <path stroke="#393454" stroke-width=".5" d="M39.33 17.751c.196.327.523 2.094.262 2.356-.262.261-.72.785-.85.196-.132-.589-.393-1.44-.393-1.44" transform="translate(4 -16)"/>
                            <path fill="#FF4A9D" fill-rule="nonzero" d="M33.704 35.154c-4.057-2.224-6.281-2.29-7.524-2.486-1.243-.196-3.337-2.093-6.15-.85-2.814 1.243-3.337 1.962-3.337 1.962s-.916 1.244-.589 2.421c.327 1.178.85 2.29.85 2.29s-2.158 7-2.682 8.44c-.027.075-.043.132-.066.2.576.203 1.25.457 2.029.781 1.304.543 2.025 1.427 2.41 2.108 1.646-2.097 3.805-5.679 4.329-6.622.654-1.178 1.374-2.813 1.374-2.813s6.87 1.308 8.047 1.504c.397.067.79.155 1.142.243.168-1.005.51-2.38 1.213-3.645.646-1.163 1.244-1.702 1.684-1.952-.804-.492-1.716-1.024-2.73-1.58" transform="translate(4 -16)"/>
                            <path fill="#D6BCA5" d="M36.255 63.222c.523-.458.589-.72.262-.785-.327-.066-2.16-1.243-2.682-1.701-.524-.458-.916-1.243-.851-1.57.02-.106.344-.857.814-1.907-.528.144-1.183.27-1.73.205-.65-.076-1.587-.397-2.256-.652-.542 1.475-.972 2.402-1.343 3.204-.392.85-1.046 1.963-.588 2.486.458.524 2.944.85 4.187 1.047 1.243.196 3.664.13 4.187-.327" transform="translate(4 -16)"/>
                            <path fill="#393454" d="M36.517 62.437c-.327-.066-2.16-1.243-2.682-1.701-.524-.458-.916-1.243-.851-1.57 0 0-.262-.851-.85-.982-.59-.13-.851 1.636-.851 1.636l-2.495-.5c-.111.247-.217.476-.319.696-.392.85-1.046 1.963-.588 2.486.458.524 2.944.85 4.187 1.047 1.243.196 3.664.13 4.187-.327.523-.458.589-.72.262-.785" transform="translate(4 -16)"/>
                            <path fill="#D6BCA5" d="M5.505 63.614c-.58-.426-.905-1.145-1.077-1.665-.254.438-.526.684-1.147.684-.851 0-2.29-.393-2.421.72-.131 1.112 0 2.748 0 3.14 0 .392-.981 1.047-.589 2.42.393 1.375 1.112 2.618 1.505 2.749.392.13 1.112-.066 1.178-.393.065-.327-.72-.85-.327-2.028.392-1.178 2.355-3.075 3.467-4.122.198-.186.446-.49.727-.87-.414-.128-.893-.325-1.316-.635" transform="translate(4 -16)"/>
                            <path fill="#393454" d="M4.498 66.694c-.05-.087-.1-.172-.17-.266-.393-.524-1.047.065-1.047.065s-.654-.72-.589-1.7c.05-.765.73-1.797 1.031-2.221-.126.037-.268.06-.442.06-.851 0-2.29-.392-2.421.72-.131 1.113 0 2.749 0 3.141 0 .392-.981 1.047-.589 2.42.393 1.375 1.112 2.618 1.505 2.749.392.13 1.112-.066 1.178-.393.065-.327-.72-.85-.327-2.028.234-.704 1.032-1.664 1.871-2.547" transform="translate(4 -16)"/>
                        </g>
                    </g>
                    <rect width="40" height="54" x="1.5" y="1.5" stroke="#FFF" stroke-width="3" rx="4"/>
                </g>
                <g fill="#E08C80">
                    <path d="M33.74-5.906c4.48.26 7.907 4.096 7.655 8.568l-6.628 43.692s.046.042.128.123l.079.08c1.317 1.345 8.149 9.162-2.7 16.802-2.139 1.506-8.224 1.17-6.925.42 1.146-.663 2.183-1.261 3.63-2.233 3.592-2.412 1.74-10.368-1.276-8.092-1.212.924-1.332 1.724-2.472 1.6-2.808-.308 2.728-9.156 2.728-9.156L25.18 1.746c.24-4.48 4.076-7.904 8.56-7.652z" transform="translate(92 22) rotate(-10 771.308 -68.52) rotate(130 32.922 29.248)"/>
                    <path d="M30.285 14.287c.24-4.48 4.076-7.904 8.56-7.652 4.48.26 7.908 4.096 7.656 8.568l-6.628 43.692c-.248 4.48-7.076 4.02-6.808-.456l-2.78-44.152" transform="translate(92 22) rotate(-10 771.308 -68.52) rotate(130 38.4 34.328)"/>
                </g>
            </g>
        </g>
    </g>
</svg>
