<svg xmlns="http://www.w3.org/2000/svg" xmlns:xlink="http://www.w3.org/1999/xlink" width="267" height="110" viewBox="0 0 267 110">
    <defs>
        <path id="2954pmsgla" d="M0 0H267V110H0z"/>
    </defs>
    <g fill="none" fill-rule="evenodd">
        <g>
            <g transform="translate(-70 -1438) translate(70 1438)">
                <mask id="gcvhvc5ayb" fill="#fff">
                    <use xlink:href="#2954pmsgla"/>
                </mask>
                <use fill="#FEF4F9" xlink:href="#2954pmsgla"/>
                <g mask="url(#gcvhvc5ayb)">
                    <g>
                        <path fill="#A4CCFF" d="M127.93 61.204s4.845 1.614 5.113 9.692c.27 8.077 6.463 28.81 6.463 28.81s7.27-8.079 8.615-9.694c1.347-1.614 4.038-2.153 6.73 2.423 2.694 4.577 1.886 9.963-2.153 16.424-4.039 6.462-11.577 16.154-17.769 15.078-6.193-1.077-16.425-19.655-16.693-21.808-.27-2.155 4.846-23.964 5.654-27.464.807-3.5 4.04-13.46 4.04-13.46" transform="translate(27.733 -93)"/>
                        <path fill="#FFB6B5" d="M68.695 139.013s-3.769 5.117-2.422 9.963c1.346 4.846 3.5 9.423 3.5 9.423s-8.886 28.81-11.039 34.733c-2.154 5.923-.539 6.46-6.193 9.96-5.654 3.5-18.04 8.347-22.077 21.27-4.039 12.924-9.425 25.04-11.039 28.271-1.616 3.231-2.425 5.116-5.925 5.116s-9.422-1.616-9.96 2.962c-.54 4.577 0 11.308 0 12.923 0 1.616-4.04 4.308-2.423 9.961 1.614 5.655 4.575 10.77 6.192 11.308 1.615.54 4.577-.269 4.847-1.614.269-1.347-2.964-3.5-1.347-8.347 1.616-4.847 9.691-12.654 14.27-16.962 4.577-4.308 15.346-23.425 23.423-32.04 8.078-8.616 17.232-19.385 23.693-25.04 6.461-5.653 19.655-27.462 22.347-32.307 2.692-4.847 5.655-11.578 5.655-11.578s28.27 5.384 33.117 6.193c4.845.807 9.692 2.422 9.692 2.422s-8.347 7.27-10.502 18.578c-2.153 11.308-7 31.77-9.422 38.502-2.424 6.73-4.307 10.768-5.924 14.268-1.615 3.5-4.308 8.078-2.422 10.233 1.884 2.153 12.115 3.5 17.23 4.308 5.116.806 15.079.537 17.232-1.347 2.153-1.884 2.423-2.96 1.078-3.231-1.347-.269-8.886-5.116-11.039-7-2.155-1.885-3.769-5.116-3.501-6.463.268-1.345 12.385-28 17.77-38.77 5.384-10.769 11.309-29.615 12.923-33.923 1.616-4.308 2.155-5.117.54-7.27-1.616-2.154-11.579-9.693-28.271-18.847-16.694-9.155-25.848-9.424-30.962-10.231-5.116-.808-13.733-8.616-25.31-3.5-11.578 5.115-13.73 8.076-13.73 8.076" transform="translate(27.733 -93)"/>
                        <path fill="#B5E1FF" fill-rule="nonzero" d="M128.736 58.51s1.078 10.232-.807 24.502c-1.886 14.27-12.115 35.54-12.925 40.654-.807 5.117 2.693 8.347 1.616 9.963-1.077 1.615-3.231 2.154-5.923 2.154-2.693 0-13.194-2.693-21.54-1.076-8.345 1.614-17.5 9.153-19.384 8.345-1.886-.808-4.847-4.039-2.962-7.269 1.884-3.23 3.769-5.115 5.384-8.346 1.617-3.232 9.692-28.81 11.578-37.155 1.885-8.347 1.077-18.04.808-24.77-.269-6.731 5.384-17.77 9.692-19.386 4.308-1.616 16.424 1.616 17.77 1.616s14.27 4.039 16.693 10.768" transform="translate(27.733 -93)"/>
                        <path fill="#FFB6B5" d="M55.233 112.898s.808 3.23 2.962 6.73c2.153 3.5 3.231 7.27 1.885 8.616-1.346 1.346-1.346 1.346-6.732 2.961-5.384 1.616-7.537.54-8.076-.807-.54-1.346 1.615-2.961 1.615-2.961s-3.501-.808-3.501-4.308 1.078-10.5 1.078-10.5l10.501-.81.268 1.079" transform="translate(27.733 -93)"/>
                        <path fill="#689CDE" d="M42.58 107.243s-.27 5.386 1.345 6.731c1.616 1.347 10.231 0 11.308-1.076 1.078-1.078 1.347-8.078 1.347-8.078l-14 2.423" transform="translate(27.733 -93)"/>
                        <path fill="#A4CCFF" d="M108.004 54.473s-3.768-4.04-9.423-5.924c-5.653-1.885-23.425-.539-35.81 2.693-12.384 3.23-17.5 2.96-19.385 7.807-1.884 4.846-4.845 42.54-4.306 46.849.537 4.307 9.153 4.576 13.192 3.5 4.039-1.078 7.269-3.77 8.615-9.424 1.347-5.654 1.078-25.847 2.961-28.001 1.886-2.155 24.233-.808 30.425-1.616 6.194-.808 10.502-2.692 11.577-4.308" transform="translate(27.733 -93)"/>
                        <path fill="#689CDE" d="M151.621 88.127s-4.576 2.424-3.77 6.461c.808 4.04 4.847 7.002 6.464 6.732 1.614-.27 4.844-4.577 4.844-4.577s.539-10.769-7.538-8.616" transform="translate(27.733 -93)"/>
                        <path fill="#FFB6B5" d="M151.082 91.088s2.155 6.194 4.847 6.463c2.694.269 4.04-1.346 7.269-4.577 3.231-3.23 6.462-5.654 6.462-9.962s-1.076-10.231-3.5-10.5c-2.423-.27-4.307.539-4.307.539s-.808-1.617-3.23.267c-2.425 1.886-1.886 3.233-3.233 5.655-1.345 2.423-1.614 3.501-1.345 5.654.27 2.155.27 2.961.27 2.961l-3.233 3.5" transform="translate(27.733 -93)"/>
                        <path fill="#FF4A9D" fill-rule="nonzero" d="M138.698 144.668c-16.694-9.155-25.848-9.424-30.962-10.231-5.116-.808-13.733-8.616-25.31-3.5-11.578 5.115-13.73 8.076-13.73 8.076s-3.77 5.117-2.424 9.963c1.347 4.846 3.501 9.423 3.501 9.423s-8.886 28.81-11.04 34.733c-.11.306-.178.543-.27.823 2.37.834 5.145 1.88 8.348 3.214 5.367 2.236 8.333 5.872 9.917 8.675 6.774-8.63 15.658-23.37 17.814-27.251 2.694-4.847 5.655-11.578 5.655-11.578s28.27 5.384 33.117 6.192c1.633.273 3.25.637 4.698 1 .692-4.136 2.101-9.794 4.994-15 2.658-4.785 5.117-7.006 6.928-8.033-3.308-2.028-7.061-4.217-11.236-6.506" transform="translate(27.733 -93)"/>
                    </g>
                </g>
            </g>
        </g>
    </g>
</svg>
