<svg xmlns="http://www.w3.org/2000/svg" width="24" height="24" viewBox="0 0 24 24">
    <g fill="none" fill-rule="evenodd">
        <g>
            <g>
                <path d="M0 0H24V24H0z" transform="translate(-4 -4) translate(4 4)"/>
                <path fill="#FFF" d="M12 4c1.105 0 2 .895 2 2v4h4c1.105 0 2 .895 2 2s-.895 2-2 2h-4v4c0 1.105-.895 2-2 2s-2-.895-2-2v-4H6c-1.105 0-2-.895-2-2s.895-2 2-2h4V6c0-1.105.895-2 2-2z" transform="translate(-4 -4) translate(4 4)"/>
            </g>
        </g>
    </g>
</svg>
