<svg xmlns="http://www.w3.org/2000/svg" width="32" height="32" viewBox="0 0 32 32">
    <g fill="none" fill-rule="evenodd">
        <g>
            <g>
                <g transform="translate(-836 -546) translate(741 528) translate(95 18)">
                    <rect width="32" height="32" fill="#EA006C" rx="4"/>
                    <path fill="#FFF" fill-rule="nonzero" d="M16.763 25.727l.001-.001-.18.072-.18.07-.205.027-.202.025-.2-.025-.202-.026h-.001l-.003-.001-.18-.071-.181-.071h-.001l-.15-.11-.154-.113-.117-.144-.12-.146.001.004-.079-.176-.075-.17-.054-.377.027-.19.027-.188-.001.005-.02.067c-.011.05-.02.1-.025.152l-.009.15.001.004-.001.002v.003c-.01.2.037.387.134.563.063.182.172.34.321.473.14.145.308.244.5.303.187.092.386.135.6.127l.412-.053c.264-.07.491-.197.686-.378l.243-.296.03-.054c-.014.032-.019.045-.041.08l-.243.296c-.012.01-.313.229-.323.235-.058.029-.158.062-.192.076-.193.076-.122.059-.193.076L16 26c-.022 0-.414-.05-.426-.053l-.08-.03c-.107-.041-.282-.112-.295-.119-.004-.003-.008-.003-.01-.006-.016-.011-.305-.22-.317-.232-.044-.05-.087-.1-.124-.153-.044-.049-.087-.1-.125-.152-.002 0-.002-.003-.002-.003l-.155-.35c0-.005-.003-.009-.003-.011l-.056-.39c0-.017.054-.385.056-.399l.003-.01c.087-.246.198-.478.407-.657l.32-.232.01-.002c.272-.132.485-.202.796-.202.14 0 .286.012.42.053.128.047.252.097.377.146.12.059.228.146.325.237.215.206.31.388.408.658l.002.01.006.035.006.014c.022.075.036.151.041.23v.09l.002.027c0 .053-.003.105-.009.156l-.007.04v.012c-.008.078-.017.124-.035.175l-.016.037-.01.036c-.017.049-.036.097-.059.144l-.046.083.017-.038.027-.062c.028-.063.05-.108.066-.147l.005-.016.033-.112.018-.112.007-.076.008-.118-.001-.029-.007-.073c-.005-.033-.01-.066-.018-.1l-.012-.098-.01-.063-.034-.095c-.016-.037-.033-.072-.052-.108-.063-.181-.172-.34-.321-.473-.14-.144-.308-.244-.5-.302-.187-.092-.386-.135-.6-.127l-.412.053c-.264.07-.491.197-.686.378l-.243.295c-.055.091-.1.185-.134.282l-.02.068-.001.005-.001.002.001-.003v.002l.077-.17.074-.168.122-.148.117-.144.155-.112.149-.111.183-.072.18-.071.204-.026.201-.026.202.026.201.025.001.001h.003l.181.073.18.07.151.11.153.113.119.145.118.143v-.002l.079.176.074.168v-.006l.028.195.027.19-.052.373c-.053.118-.106.235-.156.35l.003-.006-.24.292-.153.113-.151.11-.002.001zM18.2 10.924c-.195-.21-.41-.401-.644-.573l.164.128-.083-.055c-.159-.1-.323-.19-.493-.27l-.083-.037-.067-.024c-.176-.057-.356-.104-.538-.14l-.073-.013-.086-.008c-.198-.012-.396-.012-.594 0l-.073.007-.096.017c-.188.037-.373.086-.555.145l-.059.021-.098.044c-.168.081-.331.172-.488.272l-.055.036-.08.064c-.14.119-.274.245-.399.378l-.055.063-.057.074c-.11.155-.21.316-.3.483l-.044.088-.034.087c-.066.182-.12.367-.162.555l-.024.126-.012.18-.005.205c-.003.822-.708 1.432-1.554 1.467-.388.018-.83-.174-1.1-.428-.279-.267-.455-.663-.453-1.039.004-.974.261-1.921.74-2.784.453-.823 1.137-1.485 1.926-2.022.263-.179.547-.329.845-.452.416-.17.826-.325 1.274-.405.92-.162 1.845-.162 2.752.07 1.608.411 3.06 1.52 3.79 2.937.41.8.643 1.634.67 2.526.017.457-.046.922-.139 1.37-.09.44-.264.852-.457 1.262-.32.683-.823 1.327-1.42 1.82-.341.284-.711.551-1.112.757-.422.22-.878.352-1.32.522l.257-.095-.029.013-.099.054-.045.041.01-.013.008-.013-.01.006-.015.009-.009.011-.014.017-.007.018h.002l.036-.035-.057.094-.026.09-.002.038c-.008.17-.004.34 0 .51l.003.253v.936c0 .397-.177.749-.456 1.035-.282.288-.7.411-1.1.429-.389.017-.83-.174-1.1-.429-.28-.266-.453-.663-.453-1.038v-.605c0-.61-.031-1.218.087-1.819.062-.309.202-.613.36-.886.112-.194.265-.364.408-.534.068-.076.14-.154.217-.22.24-.21.514-.41.814-.538.314-.132.64-.226.957-.353l-.232.086.112-.049c.164-.078.322-.166.475-.263l.083-.056.06-.045c.148-.124.288-.257.42-.397l.051-.06.064-.083c.108-.152.206-.31.292-.473l.037-.076.04-.097c.066-.184.12-.371.162-.562l.017-.089-.019.19.056-.39-.036.19.01-.095c.014-.197.014-.394.002-.591l-.016-.153-.047-.209c-.039-.15-.085-.299-.14-.444l-.017-.042-.04-.083c-.088-.168-.189-.33-.3-.488l-.076-.101.145.166-.243-.296.097.129z"/>
                </g>
            </g>
        </g>
    </g>
</svg>
