<svg xmlns="http://www.w3.org/2000/svg" xmlns:xlink="http://www.w3.org/1999/xlink" width="364" height="110" viewBox="0 0 364 110">
    <defs>
        <path id="gl83pw8kga" d="M0 0H364V110H0z"/>
    </defs>
    <g fill="none" fill-rule="evenodd">
        <g>
            <g transform="translate(-70 -947) translate(70 947)">
                <mask id="umhrwwtrvb" fill="#fff">
                    <use xlink:href="#gl83pw8kga"/>
                </mask>
                <use fill="#FEF4F9" xlink:href="#gl83pw8kga"/>
                <g mask="url(#umhrwwtrvb)">
                    <g fill-rule="nonzero">
                        <g>
                            <path fill="#B5E1FF" d="M55.037 106.935h-5.418c-4.712 0-5.143-4.938-5.176-6.224V73.513c.042-17.356 5.176-19.545 5.176-19.545H33.82s5.176 2.205 5.176 19.757v26.947c-.024 1.223-.415 6.263-5.176 6.263h-5.418c-2.08 0-3.782 1.702-3.782 3.783 0 2.08 1.702 3.782 3.782 3.782h26.635c2.08 0 3.783-1.702 3.783-3.782s-1.702-3.783-3.783-3.783z" transform="translate(100.174 11) translate(81 20)"/>
                            <path fill="#A7D7F7" d="M38.336 64.108c2.496.681 4.36.592 6.768 0 1.395-8.809 4.515-10.14 4.515-10.14H33.82s3.12 1.33 4.516 10.14z" transform="translate(100.174 11) translate(81 20)"/>
                            <path fill="#F4FAFE" d="M82.627 3.041C81.833 1.58 80.303.671 78.64.671H4.8C3.137.67 1.607 1.58.812 3.04.018 4.503.086 6.281.991 7.678l24.488 37.79c.824 1.322 7.13 10.93 16.24 10.93s15.417-9.608 16.242-10.93l24.487-37.79c.905-1.396.974-3.175.18-4.637z" transform="translate(100.174 11) translate(81 20)"/>
                            <path fill="#B5E1FF" d="M46.368 45.468L21.88 7.678c-.905-1.396-.973-3.175-.179-4.636C22.496 1.58 24.026.67 25.69.67H4.8c-1.663 0-3.193.91-3.988 2.372-.794 1.461-.726 3.24.179 4.636l24.488 37.79c.824 1.323 7.13 10.93 16.24 10.93 4.149 0 7.713-1.993 10.445-4.287-3.269-2.746-5.347-5.923-5.796-6.643z" transform="translate(100.174 11) translate(81 20)"/>
                            <path fill="#FF4A9D" d="M73.568 7.626c-.61-1.12-1.782-1.818-3.058-1.818H12.93c-1.276 0-2.45.697-3.058 1.818-.61 1.12-.557 2.484.137 3.554L29.5 41.262s4.7 8.481 12.219 8.481c6.734 0 11.65-7.57 12.186-8.431L73.431 11.18c.693-1.07.746-2.434.137-3.554z" transform="translate(100.174 11) translate(81 20)"/>
                            <path fill="#FF127F" d="M9.872 7.626c-.61 1.12-.557 2.484.137 3.554L29.5 41.262s4.7 8.481 12.219 8.481c2.31 0 4.407-.891 6.186-2.097-.81-1.043-1.338-1.857-1.538-2.178L21.88 7.678c-.373-.575-.6-1.215-.688-1.87H12.93c-1.275 0-2.449.697-3.057 1.818z" transform="translate(100.174 11) translate(81 20)"/>
                            <path fill="#EA006C" d="M56.881 22.037c-.944-.568-1.19-1.835-.59-2.761l1.097-1.691c.599-.926 1.835-1.19 2.76-.59.926.6 1.19 1.836.59 2.761l-1.096 1.691c-.382.59-1.465 1.37-2.76.59zM49.058 34.11c-.896-.642-1.19-1.835-.59-2.76l4.94-7.623c.599-.925 1.835-1.19 2.76-.59.926.6 1.19 1.836.59 2.761l-4.94 7.623c-.381.59-1.67 1.37-2.76.59z" transform="translate(100.174 11) translate(81 20)"/>
                        </g>
                        <g>
                            <path fill="#B9D8F4" d="M43.057 81.504H20.391s6.869 1.846 6.869 11.028c-2.01 1.409-3.325 3.74-3.325 6.381 0 4.302 3.487 7.79 7.79 7.79 4.301 0 7.788-3.488 7.788-7.79 0-2.636-1.31-4.965-3.315-6.374 0-8.927 6.859-11.035 6.859-11.035z" transform="translate(100.174 11)"/>
                            <path fill="#96C8EF" d="M43.057 81.504H20.391s6.705 1.808 6.861 10.715c1.47.163 2.96.249 4.472.249 1.515 0 3.01-.087 4.481-.25.164-8.653 6.852-10.714 6.852-10.714z" transform="translate(100.174 11)"/>
                            <path fill="#F4FAFE" d="M59.042 37.667c-1.068-2.1-11.532-15.676-2.462-33.593.426-.842.489-1.82.022-2.638C56.135.616 55.264.11 54.32.11H9.128c-.943 0-1.814.506-2.281 1.326-.467.82-.405 1.796.021 2.638 9.07 17.916-1.394 31.493-2.461 33.593C1.584 43.217.153 48.054.153 52.041c0 17.409 14.163 31.571 31.571 31.571 17.409 0 31.572-14.162 31.572-31.571 0-3.988-1.432-8.824-4.254-14.374z" transform="translate(100.174 11)"/>
                            <path fill="#B5E1FF" d="M17.008 52.04c0-3.986 1.431-8.823 4.254-14.373 1.067-2.1 11.532-15.676 2.462-33.593-.427-.842-.49-1.82-.022-2.638C24.169.616 25.04.11 25.982.11H9.129c-.943 0-1.814.506-2.281 1.326-.467.82-.405 1.796.021 2.638 9.07 17.916-1.394 31.493-2.462 33.593C1.584 43.217.153 48.054.153 52.041c0 17.409 14.162 31.571 31.57 31.571 2.919 0 5.745-.4 8.429-1.144-13.33-3.696-23.144-15.936-23.144-30.427z" transform="translate(100.174 11)"/>
                            <path fill="#FF4A9D" d="M53.215 40.036c-.022-.043-9.03-14.795-4.743-29.343.223-.752.1-1.564-.365-2.197-.465-.632-1.203-1.006-1.988-1.006H17.33c-.785 0-1.523.374-1.988 1.006-.465.633-.587 1.445-.365 2.197 4.287 14.548-4.72 29.3-4.743 29.343-2.277 4.496-3.431 8.289-3.431 11.274 0 13.742 11.18 24.923 24.922 24.923s24.922-11.18 24.922-24.923c0-2.985-1.154-6.778-3.431-11.274z" transform="translate(100.174 11)"/>
                            <path fill="#FF127F" d="M27.99 75.952C21.27 70.16 17.008 61.59 17.008 52.041c0-3.987 1.431-8.824 4.254-14.374.999-1.964 10.218-13.97 3.982-30.177h-7.915c-.785 0-1.523.373-1.987 1.006-.465.632-.588 1.444-.366 2.197 4.287 14.547-4.72 29.3-4.742 29.343-2.277 4.495-3.432 8.288-3.432 11.274 0 12.474 9.211 22.835 21.188 24.642z" transform="translate(100.174 11)"/>
                            <path fill="#EA006C" d="M46.108 58.8c-1.158-.393-1.75-1.68-1.337-2.831.263-.732.464-1.493.599-2.26.21-1.205 1.36-2.01 2.562-1.8 1.205.211 2.01 1.359 1.8 2.563-.179 1.016-.445 2.022-.793 2.991-.324.904-1.201 1.89-2.831 1.337zM31.724 69.591c-1.222 0-2.214-.991-2.214-2.214 0-1.223.992-2.214 2.214-2.214 3.72 0 7.215-1.46 9.841-4.114.86-.869 2.261-.876 3.13-.016.87.86.877 2.262.017 3.13-3.464 3.5-8.076 5.428-12.988 5.428z" transform="translate(100.174 11)"/>
                            <path fill="#FF82BC" d="M46.12 7.49H17.33c-.786 0-1.524.374-1.988 1.006-.465.633-.588 1.445-.366 2.197.768 2.607 1.108 5.22 1.15 7.753h31.196c.043-2.534.383-5.146 1.15-7.753.223-.752.1-1.564-.365-2.197-.465-.633-1.203-1.006-1.988-1.006z" transform="translate(100.174 11)"/>
                            <path fill="#FF68AD" d="M17.329 7.49c-.785 0-1.523.374-1.988 1.006-.464.633-.587 1.445-.365 2.197.768 2.607 1.108 5.22 1.15 7.753H27.39c-.033-3.35-.636-7.03-2.147-10.956H17.33z" transform="translate(100.174 11)"/>
                        </g>
                    </g>
                </g>
            </g>
        </g>
    </g>
</svg>
