<svg xmlns="http://www.w3.org/2000/svg" width="348" height="248" viewBox="0 0 348 248">
    <g fill="none" fill-rule="evenodd">
        <g>
            <g>
                <g>
                    <path d="M0 0H348V248H0z" transform="translate(-86 -305) translate(70 147) translate(16 158)"/>
                    <g>
                        <path fill="#B5E1FF" fill-rule="nonzero" d="M38.574 31.025c-7.25 0-13.174 5.924-13.174 13.174v134.03c0 7.24 5.924 13.175 13.174 13.175H193.81c7.24 0 13.174-5.935 13.174-13.175V44.2c0-7.24-5.935-13.174-13.174-13.174H38.574z" transform="translate(-86 -305) translate(70 147) translate(16 158) translate(57 13) rotate(-25 116.193 111.214)"/>
                        <path fill="#F4FAFE" fill-rule="nonzero" d="M39.279 46.894v128.634c0 1.098.9 1.989 1.988 1.989H191.11c1.098 0 1.989-.891 1.989-1.989V46.894c0-1.088-.89-1.979-1.989-1.979h-25.405v.539c0 27.353-22.163 49.517-49.516 49.517-27.342 0-49.516-22.164-49.516-49.517 0-.176.01-.363.01-.539H41.268c-1.087 0-1.988.891-1.988 1.979z" transform="translate(-86 -305) translate(70 147) translate(16 158) translate(57 13) rotate(-25 116.188 111.216)"/>
                        <path fill="#F9F7F8" d="M52.77 51.613c0 9.839 3.988 18.746 10.43 25.198 6.452 6.453 15.358 10.44 25.197 10.44 9.839 0 18.746-3.987 25.198-10.44 6.453-6.452 10.44-15.36 10.44-25.198 0-5.137-1.087-10.015-3.045-14.428-1.792-4.039-4.308-7.685-7.395-10.77-6.452-6.443-15.359-10.43-25.198-10.43S69.652 19.972 63.2 26.415c-3.075 3.085-5.603 6.731-7.394 10.77-1.947 4.413-3.035 9.29-3.035 14.428z" transform="translate(-86 -305) translate(70 147) translate(16 158) translate(57 13) rotate(-25 88.403 51.618)"/>
                        <path fill="#F0F0F0" d="M98.963 20.03c3.086 3.086 5.603 6.731 7.395 10.77.093.197.176.404.259.601 1.791 4.257 2.786 8.928 2.786 13.827 0 9.839-3.988 18.746-10.44 25.198-3.355 3.356-7.374 6.049-11.848 7.851-2.61 1.057-5.375 1.813-8.255 2.227 2.652.631 5.417.963 8.255.963 9.839 0 18.746-3.987 25.198-10.44 6.452-6.452 10.44-15.36 10.44-25.199 0-5.137-1.088-10.015-3.045-14.427-1.792-4.04-4.309-7.685-7.395-10.771-6.452-6.442-15.359-10.43-25.198-10.43-1.73 0-3.428.124-5.085.363 1.75.414 3.449.953 5.085 1.615 4.474 1.813 8.493 4.496 11.848 7.851z" transform="translate(-86 -305) translate(70 147) translate(16 158) translate(57 13) rotate(-25 100.806 45.834)"/>
                        <path fill="#A4CCFF" d="M159.93 1.2c7.25 0 13.174 5.935 13.174 13.174v.715h11.392c1.098 0 1.989.89 1.989 1.978v128.634c0 1.098-.89 1.99-1.989 1.99h-11.392v.714c0 7.24-5.924 13.174-13.174 13.174h27.27c7.239 0 13.173-5.935 13.173-13.174V14.375c0-7.24-5.934-13.175-13.174-13.175H159.93z" transform="translate(-86 -305) translate(70 147) translate(16 158) translate(57 13) rotate(-25 180.152 81.39)"/>
                        <path fill="#60002C" fill-rule="nonzero" d="M89.673 43.474c-1.458-.54-2.991-.708-4.488-.507l-3.668-8.006c-.63-1.375-2.256-1.98-3.632-1.35-1.376.63-1.98 2.257-1.35 3.633l3.672 8.016c-2.979 2.661-4.023 7.057-2.273 10.868 1.042 2.268 2.904 3.994 5.242 4.86 1.058.392 2.154.586 3.249.586 1.327 0 2.649-.286 3.888-.856 2.266-1.033 3.992-2.89 4.862-5.227.871-2.345.777-4.888-.266-7.158-1.036-2.264-2.896-3.99-5.236-4.859zm.365 10.106c-.358.963-1.068 1.727-2.006 2.155-.938.431-1.986.471-2.952.114-.966-.358-1.735-1.072-2.166-2.01-.887-1.93-.035-4.227 1.899-5.118.936-.43 1.985-.468 2.953-.108.966.359 1.733 1.07 2.161 2.004.432.941.472 1.993.111 2.963z" transform="translate(-86 -305) translate(70 147) translate(16 158) translate(57 13) rotate(-25 86.026 47.468)"/>
                        <path fill="#60002C" fill-rule="nonzero" d="M88.397 13.244c-21.156 0-38.367 17.212-38.367 38.369 0 21.162 17.211 38.379 38.367 38.379 21.162 0 38.378-17.217 38.378-38.38 0-21.156-17.216-38.368-38.378-38.368zm25.107 59.6l-2.694-2.693c-1.07-1.07-2.805-1.07-3.875 0-1.07 1.07-1.07 2.805 0 3.875l2.694 2.695c-5.08 4.302-11.476 7.094-18.491 7.675v-3.835c0-1.514-1.227-2.74-2.74-2.74-1.514 0-2.741 1.226-2.741 2.74v3.835c-7.013-.582-13.408-3.374-18.486-7.677l2.697-2.69c1.071-1.07 1.073-2.805.004-3.876-1.069-1.072-2.804-1.073-3.875-.005l-2.7 2.695c-4.3-5.08-7.09-11.476-7.672-18.49h3.825c1.514 0 2.74-1.227 2.74-2.74 0-1.514-1.226-2.74-2.74-2.74h-3.825c.582-7.013 3.372-13.407 7.673-18.485l2.697 2.697c.535.535 1.236.802 1.938.802.701 0 1.402-.267 1.937-.802 1.07-1.07 1.07-2.805 0-3.876l-2.697-2.697c5.078-4.3 11.472-7.091 18.484-7.673v3.825c0 1.514 1.227 2.74 2.74 2.74 1.514 0 2.74-1.226 2.74-2.74V18.84c7.015.582 13.41 3.372 18.49 7.672l-2.694 2.7c-1.069 1.072-1.067 2.807.005 3.876.535.534 1.235.8 1.935.8.703 0 1.405-.267 1.94-.804l2.691-2.697c4.303 5.078 7.095 11.473 7.676 18.486h-3.835c-1.513 0-2.74 1.227-2.74 2.74 0 1.514 1.227 2.741 2.74 2.741h3.835c-.581 7.015-3.373 13.412-7.676 18.492z" transform="translate(-86 -305) translate(70 147) translate(16 158) translate(57 13) rotate(-25 88.403 51.618)"/>
                        <path fill="#EA006C" d="M167.571 137.98H98.285c-1.036 0-1.896.85-1.896 1.896v14.48c0 1.045.86 1.895 1.896 1.895h69.286c1.047 0 1.896-.85 1.896-1.896v-14.479c0-1.046-.85-1.895-1.896-1.895z" transform="translate(-86 -305) translate(70 147) translate(16 158) translate(57 13) rotate(-25 132.928 147.116)"/>
                        <path fill="#60002C" d="M151.068 128.174v14.48c0 1.046-.849 1.895-1.895 1.895h15.804c1.046 0 1.896-.85 1.896-1.896v-14.479c0-1.046-.85-1.895-1.896-1.895h-15.804c1.046 0 1.895.849 1.895 1.895z" transform="translate(-86 -305) translate(70 147) translate(16 158) translate(57 13) rotate(-25 158.023 135.414)"/>
                        <path fill="#E9F0F5" fill-rule="nonzero" d="M173.81 17.218v128.634c0 .59-.258 1.13-.673 1.492v.497h11.393c1.098 0 1.989-.89 1.989-1.989V17.218c0-1.088-.891-1.978-1.99-1.978h-11.392v.497c.415.362.674.89.674 1.48z" transform="translate(-86 -305) translate(70 147) translate(16 158) translate(57 13) rotate(-25 179.828 81.54)"/>
                    </g>
                </g>
            </g>
        </g>
    </g>
</svg>
