<svg xmlns="http://www.w3.org/2000/svg" width="108" height="178" viewBox="0 0 108 178">
    <g fill="none" fill-rule="evenodd">
        <g>
            <g>
                <g>
                    <path d="M0 0H108V178H0z" transform="translate(-1052 -280) translate(1002 272) translate(50 8)"/>
                    <g fill-rule="nonzero">
                        <path fill="#B5E1FF" d="M55.134 107.117h-5.438c-4.729 0-5.161-4.955-5.194-6.246V73.576c.042-17.418 5.194-19.615 5.194-19.615H33.841s5.195 2.212 5.195 19.827v27.044c-.025 1.227-.418 6.285-5.195 6.285h-5.437c-2.088 0-3.797 1.709-3.797 3.797 0 2.087 1.709 3.796 3.797 3.796h26.73c2.088 0 3.796-1.709 3.796-3.796 0-2.088-1.708-3.797-3.796-3.797z" transform="translate(-1052 -280) translate(1002 272) translate(50 8) translate(12 47)"/>
                        <path fill="#B9D8F4" d="M33.84 107.117h-5.436c-2.088 0-3.797 1.709-3.797 3.796 0 2.088 1.709 3.797 3.797 3.797h5.853c-2.088 0-3.796-1.709-3.796-3.797 0-2.954 3.38-3.796 3.38-3.796z" transform="translate(-1052 -280) translate(1002 272) translate(50 8) translate(12 47)"/>
                        <path fill="#96C8EF" d="M38.373 64.137c2.505.684 4.375.595 6.793 0 1.4-8.84 4.53-10.176 4.53-10.176H33.841s3.131 1.335 4.532 10.176z" transform="translate(-1052 -280) translate(1002 272) translate(50 8) translate(12 47)"/>
                        <path fill="#D1E7F8" d="M82.823 2.851c-.797-1.466-2.333-2.38-4.002-2.38H4.717c-1.67 0-3.205.914-4.002 2.38-.798 1.467-.729 3.252.18 4.653L25.47 45.43c.827 1.327 7.156 10.969 16.299 10.969S57.24 46.757 58.068 45.43L82.643 7.504c.909-1.4.977-3.186.18-4.653z" transform="translate(-1052 -280) translate(1002 272) translate(50 8) translate(12 47)"/>
                        <path fill="#B5E1FF" d="M46.434 45.43L21.858 7.506c-.908-1.401-.977-3.187-.18-4.653.798-1.467 2.333-2.38 4.003-2.38H4.717c-1.67 0-3.205.913-4.002 2.38-.798 1.466-.729 3.252.18 4.653L25.47 45.43c.827 1.327 7.156 10.968 16.299 10.968 4.163 0 7.74-2 10.482-4.302-3.281-2.755-5.367-5.944-5.817-6.666z" transform="translate(-1052 -280) translate(1002 272) translate(50 8) translate(12 47)"/>
                        <path fill="#FF0C38" d="M17.582 22.806L29.507 41.21s4.716 8.512 12.262 8.512c6.758 0 11.692-7.598 12.23-8.462l11.9-18.453H17.582z" transform="translate(-1052 -280) translate(1002 272) translate(50 8) translate(12 47)"/>
                        <path fill="#D80027" d="M17.582 22.806L29.507 41.21s4.716 8.512 12.262 8.512c2.319 0 4.423-.895 6.209-2.105-.814-1.047-1.343-1.863-1.544-2.185L31.836 22.903l-14.254-.097zM46.972 36.625c-.9-.644-1.194-1.842-.592-2.77l4.957-7.65c.601-.929 1.842-1.194 2.77-.592.93.602 1.194 1.842.592 2.77l-4.957 7.65c-.383.592-1.676 1.376-2.77.592z" transform="translate(-1052 -280) translate(1002 272) translate(50 8) translate(12 47)"/>
                    </g>
                </g>
            </g>
        </g>
    </g>
</svg>
