<svg xmlns="http://www.w3.org/2000/svg" width="108" height="178" viewBox="0 0 108 178">
    <g fill="none" fill-rule="evenodd">
        <g>
            <g>
                <g>
                    <path d="M0 0H108V178H0z" transform="translate(-586 -280) translate(536 272) translate(50 8)"/>
                    <g fill-rule="nonzero">
                        <path fill="#E7F4FF" d="M70.7 1.748C69.998.97 69 .528 67.95.528H4.37c-1.048 0-2.047.443-2.75 1.22C.917 2.525.575 3.563.68 4.606l7.045 69.976c.19 1.894 1.785 3.336 3.688 3.336h49.494c1.904 0 3.498-1.442 3.689-3.336L71.64 4.606c.104-1.043-.237-2.081-.94-2.858z" transform="translate(-586 -280) translate(536 272) translate(50 8) translate(18 84)"/>
                        <path fill="#B5E1FF" d="M22.909 74.582L15.864 4.606c-.105-1.042.237-2.08.94-2.858.702-.777 1.701-1.22 2.749-1.22H4.369c-1.048 0-2.047.443-2.75 1.22C.916 2.525.575 3.564.68 4.606l7.044 69.976c.191 1.894 1.785 3.336 3.69 3.336h15.183c-1.904 0-3.498-1.442-3.688-3.336z" transform="translate(-586 -280) translate(536 272) translate(50 8) translate(18 84)"/>
                        <path fill="#FFAC00" d="M61.2 39.316c-.532-.588-1.288-.923-2.081-.923H13.2c-.793 0-1.549.335-2.081.923-.532.589-.79 1.374-.71 2.163l3.075 27.597c.144 1.433 1.35 2.524 2.791 2.524h39.767c1.44 0 2.647-1.09 2.791-2.524l3.076-27.597c.08-.789-.179-1.574-.71-2.163z" transform="translate(-586 -280) translate(536 272) translate(50 8) translate(18 84)"/>
                        <path fill="#FC9505" d="M27.635 69.076L24.56 41.479c-.08-.789.18-1.574.711-2.163.532-.588 1.288-.923 2.081-.923h-14.15c-.793 0-1.549.335-2.08.923-.533.589-.79 1.374-.712 2.163l3.076 27.597c.144 1.433 1.35 2.524 2.792 2.524h14.15c-1.441 0-2.648-1.09-2.792-2.524z" transform="translate(-586 -280) translate(536 272) translate(50 8) translate(18 84)"/>
                        <path fill="#E6F6FF" d="M31.54 51.596L21.04 41.097c-1.487-1.487-1.487-3.921 0-5.408L31.54 25.19c1.487-1.487 3.921-1.487 5.408 0L47.447 35.69c1.487 1.487 1.487 3.921 0 5.408L36.948 51.596c-1.487 1.487-3.921 1.487-5.408 0z" transform="translate(-586 -280) translate(536 272) translate(50 8) translate(18 84)"/>
                        <path fill="#FFB64F" d="M48.868 38.84c-.448-.287-.972-.447-1.514-.447h-27.77c0 .77.29 1.538.874 2.122l11.664 11.663c1.167 1.167 3.076 1.167 4.244 0l11.663-11.663c.47-.47.747-1.06.839-1.674z" transform="translate(-586 -280) translate(536 272) translate(50 8) translate(18 84)"/>
                        <path fill="#FFF" d="M43.305 51.596L32.806 41.097c-1.487-1.487-1.487-3.921 0-5.408L43.305 25.19c1.487-1.487 3.92-1.487 5.408 0L59.212 35.69c1.487 1.487 1.487 3.921 0 5.408L48.713 51.596c-1.487 1.487-3.921 1.487-5.408 0z" transform="translate(-586 -280) translate(536 272) translate(50 8) translate(18 84)"/>
                        <path fill="#FFC471" d="M60.632 38.84c-.448-.287-.971-.447-1.514-.447h-27.77c0 .77.292 1.538.876 2.122l11.663 11.663c1.167 1.167 3.077 1.167 4.244 0l11.663-11.663c.47-.47.747-1.06.838-1.674z" transform="translate(-586 -280) translate(536 272) translate(50 8) translate(18 84)"/>
                        <path fill="#FC9505" d="M54.523 55.615c-.827-.108-1.435-.823-1.351-1.653l.096-.951c.083-.83.822-1.433 1.653-1.351.83.083 1.434.824 1.35 1.653l-.095.951c-.078.778-.423 1.512-1.653 1.351zM53.523 67.071c-.05 0-.101-.002-.153-.007-.83-.084-1.434-.824-1.35-1.654l.721-7.168c.084-.83.823-1.434 1.653-1.351.83.084 1.435.824 1.351 1.653l-.722 7.169c-.078.778-.734 1.358-1.5 1.358z" transform="translate(-586 -280) translate(536 272) translate(50 8) translate(18 84)"/>
                    </g>
                </g>
            </g>
        </g>
    </g>
</svg>
