<svg xmlns="http://www.w3.org/2000/svg" width="284" height="469" viewBox="0 0 284 469">
    <g fill="none" fill-rule="evenodd">
        <g>
            <path d="M0 0H284V469H0z"/>
            <g transform="translate(63 7)">
                <path fill="#FAA9A8" d="M66.57 84.181c3.084 1.408 6.484 2.244 10.096 2.244 3.604 0 7.004-.836 10.092-2.244v-12.72H66.57v12.72"/>
                <path fill="#EB9392" d="M105.134 55.777c-.908 2.684-3.248 4.312-5.244 3.64-1.992-.656-2.876-3.38-1.972-6.072.904-2.676 3.252-4.32 5.236-3.644 2 .672 2.884 3.396 1.98 6.076M47.682 55.777c.904 2.684 3.252 4.312 5.248 3.64 1.984-.656 2.876-3.38 1.964-6.072-.896-2.676-3.244-4.32-5.232-3.644-2 .672-2.884 3.396-1.98 6.076"/>
                <path fill="#FFF" stroke="#000" stroke-opacity=".038" stroke-width="2" d="M86.648 97.718c.987.237 9.11 2.408 16.678 10.947 5.884 6.632 11.4 17.074 13.058 33.359h0l-17.163 2.626-2.255 72.055-37.541-.925-3.747-72.183-18.547-2.684c7.01-36.041 27.925-42.723 29.573-43.196h0z"/>
                <path fill="#FFB6B5" d="M76.666 21.213c13.452 0 24.356 10.9 24.356 24.356v12.72c0 9.858-5.848 18.34-14.263 22.174v16.254h-.318c-.512 2.878-4.747 5.368-9.903 5.368-5.155 0-9.39-2.49-9.899-5.368h-.069V80.463c-8.416-3.835-14.268-12.317-14.268-22.174v-12.72c0-13.456 10.912-24.356 24.364-24.356zM105.902 395.54c.021 4.253.197 14.559 1.396 16.849 2.36 4.5 12.9 7.388 14.24 14.852.712 3.988-1.772 8.568-8.556 5.736-1.016-.424-19.432-7.684-19.932-11.396-.58-4.36-1.98-19-2.836-27.884l.002.02c-2.984-14.445-6.46-32.238-7.366-40.88-1.968-18.868-6.788-75.68-6.788-75.68s-1.734 17.964-3.515 35.918l-.267 2.691c-1.098 11.044-2.183 21.741-2.858 27.879-1.157 10.452-4.944 32.969-7.923 50.052-.665 8.356-1.733 14.636-1.149 17.24.228 1.008 1.152 3.24-.876 7.624-.864 1.863-2.583 5.12-4.392 8.43l-.388.71-.39.708c-2.532 4.594-5.025 8.92-5.41 9.36-4.256 4.876-13.848 1.504-12.26-6.18 1.38-6.668 6.948-14.848 8.744-19.2.704-1.698 1.044-4.83 1.196-8.051V277.157l5.172-60.4h50.364l3.792 60.4z"/>
                <path fill="#008EE3" d="M96.834 101.545c-3.296-2.168-5.456-3.34-6.768-3.7l-1.652 33.68H66.002L63.77 97.757c-1.276.416-3.288 1.64-6.356 3.828.028.38-6.04 51.232-5.364 59.732.74 9.248 5.26 22.56-2.508 46.7-10.984 34.104-13.588 140.472-13.588 140.472h83.716s-3.2-107.572-14.376-141.924c-5.948-18.248-3.6-33.824-3.4-46.024.436-26.08-5.104-58.54-5.06-58.996"/>
                <path fill="#FFB6B5" d="M37.146 141.753l17.448 2.568-8.66 38.427 14.184 25.241c2.196 4.218-7.623 11.601-9.989 7.627l-.075-.135-20.068-25.556c-.721-1.388-1.032-2.882-.975-4.342-.043-.857.044-1.705.28-2.502l7.855-41.328zM116.314 142.613l-15.656 2.144 4.576 40.868c.596 4.248 5.364 8.08 9.616 7.472 4.26-.596 7.22-4.532 6.616-8.796l-5.152-41.688"/>
                <path fill="#0071B5" d="M65.158 211.185L52.746 221.529 48.914 216.905 61.338 206.565 65.158 211.185"/>
                <path fill="#0080CD" d="M64.118 155.429v19.26c0 1.096.864 1.984 1.928 1.984h24.136c1.064 0 1.932-.888 1.932-1.984v-19.26H64.118"/>
                <path fill="#0071B5" d="M62.714 158.445L93.514 158.445 93.514 153.365 62.714 153.365z"/>
                <path fill="#EA006C" d="M111.12 146.233c-3.463-4.1-7.383-18.072-1.391-31.284 5.992-13.208 3.736-31.48.232-43.532-3.512-12.048-4.908-29.92-4.908-29.92l-.012.076c-.004-7.332-2.62-15.288-13.152-21.06-23.408-12.848-34.304 3.564-34.304 3.564-5.488-.272-7.92 4.664-9.216 11.236l-.012-.072.012.096c-.324 1.596-.592 3.256-.796 4.996-.164 1.388.072 3.412.456 5.54-.588 5.168-1.912 11.724-4.804 18.564-8.104 19.164-1.624 33.144 6.484 41.708 13.084 13.828 3.612 25.84-2.192 35.572-5.804 9.732-1.576 23.976 7.84 27.448 9.42 3.48 22.6-2.112 19.36-13.428-2.944-10.252-3.464-17.612-.448-26.652 3.028-9.036-.176-27.928-7.784-32.84l.096-15.98S55.989 76.533 52.7 61.837c0 0-.456-6.772 5.392-10.132 5.272-3.02 4.572-6.336 4.5-8.772 1.44 1.812 3.884 2.796 8.012 1.324 8.776-3.12 11.424 8.448 22.696 8.448 3.58 0 7.012 7.004 7.012 7.004-3.4 16.592-13.996 20.544-13.996 20.544v15.992c4.168 3.292 4.272 15.512 2.792 25.652-2.804 19.116 4.632 38.468 11.232 40.096 6.608 1.616 18.424-6.728 10.78-15.76"/>
                <path fill="#FFBEBE" d="M91.303 127.013c4.48.26 7.908 4.096 7.656 8.568l-6.628 43.692s6.448 8.652-3.148 20.332c-2.492 3.032-5.94 1.644-2.664-6.4 2.208-5.448 1.764-9.108-1.252-6.832-1.212.924-1.332 1.724-2.472 1.6-2.808-.308 2.728-9.156 2.728-9.156l-2.78-44.152c.24-4.48 4.076-7.904 8.56-7.652z" transform="rotate(130 90.486 164.042)"/>
                <ellipse cx="76.5" cy="146.5" fill="#E19E9E" rx="2.5" ry="1.5" transform="rotate(-18 76.5 146.5)"/>
                <g fill-rule="nonzero">
                    <path fill="#E9F0F5" d="M0 18.806H34.791V25.303H0z" transform="rotate(-33 250.933 -18.838)"/>
                    <path fill="#E5E8E9" fill-opacity=".537" d="M31.326.008s-2.94 1.281-2.94 5.93c0 3.937 4.126 4.317 4.126 7.447 0 2.325-.664 3.036-.664 3.036s2.989-2.371 2.989-5.74c0-4.933-4.602-2.371-3.51-10.673z" transform="rotate(-33 250.933 -18.838)"/>
                    <path fill="#FFD529" d="M0 18.806H11.614V25.303H0z" transform="rotate(-33 250.933 -18.838)"/>
                    <path fill="#AC95A0" d="M10.442 18.806H12.785V25.303H10.442z" transform="rotate(-33 250.933 -18.838)"/>
                    <path fill="#D0D8DF" d="M0 22.96H34.791V25.303H0z" transform="rotate(-33 250.933 -18.838)"/>
                    <path fill="#AC95A0" d="M31.635 18.806H34.79V25.303H31.635z" transform="rotate(-33 250.933 -18.838)"/>
                    <path fill="#60002C" d="M31.635 22.96H34.79V25.303H31.635z" transform="rotate(-33 250.933 -18.838)"/>
                    <path fill="#E3B90C" d="M0 22.96H11.614V25.303H0z" transform="rotate(-33 250.933 -18.838)"/>
                    <path fill="#60002C" d="M10.442 22.96H12.785V25.303H10.442z" transform="rotate(-33 250.933 -18.838)"/>
                </g>
                <path fill="#E5E8E9" fill-opacity=".537" fill-rule="nonzero" d="M26.853 39S15 43.994 15 62.121c0 15.353 16.632 16.833 16.632 29.04 0 9.064-2.676 11.839-2.676 11.839S41 93.751 41 80.619C41 61.38 22.456 71.369 26.853 39z" transform="rotate(-30 28 71)"/>
                <path fill="#E5E8E9" fill-opacity=".22" fill-rule="nonzero" d="M115.853 1S104 5.994 104 24.121c0 15.353 16.632 16.833 16.632 29.04 0 9.064-2.676 11.839-2.676 11.839S130 55.751 130 42.619c0-19.238-18.544-9.25-14.147-41.619z" transform="rotate(-138 117 33)"/>
                <path fill="#FFB6B5" d="M90.693 127.298c4.48.26 7.908 4.096 7.656 8.568l-6.628 43.692s6.448 8.652-3.148 20.332c-2.492 3.032-5.94 1.644-2.664-6.4 1.498-3.697.505-9-.289-12.029-.482-.585-.766-1.375-.707-2.36l-2.78-44.151c.24-4.48 4.076-7.904 8.56-7.652z" transform="rotate(130 90.247 164.327)"/>
            </g>
        </g>
    </g>
</svg>
