<svg xmlns="http://www.w3.org/2000/svg" xmlns:xlink="http://www.w3.org/1999/xlink" width="364" height="110" viewBox="0 0 364 110">
    <defs>
        <path id="qjymm6t86a" d="M0 0H364V110H0z"/>
    </defs>
    <g fill="none" fill-rule="evenodd">
        <g>
            <g transform="translate(-846 -947) translate(846 947)">
                <mask id="thwcdejsub" fill="#fff">
                    <use xlink:href="#qjymm6t86a"/>
                </mask>
                <use fill="#FEF4F9" xlink:href="#qjymm6t86a"/>
                <g mask="url(#thwcdejsub)">
                    <g>
                        <path d="M0 0H145.6V178H0z" transform="rotate(20 240.826 378.652)"/>
                        <g fill-rule="nonzero">
                            <path fill="#E7F4FF" d="M89.603 0H11.65C5.269 0 .048 7.405.048 16.082v56.204c0 5.031 1.757 9.529 4.476 12.423.55.586 6.038 4.586 6.038 17.159v27.609c0 8.677 5.221 15.776 11.602 15.776h56.924c6.381 0 11.602-7.1 11.602-15.776v-27.61c0-12.571 5.489-16.572 6.039-17.158 2.718-2.894 4.476-7.392 4.476-12.423V16.083C101.205 7.405 95.985 0 89.603 0z" transform="rotate(20 240.826 378.652) translate(21.57 16)"/>
                            <path fill="#B5E1FF" d="M45.587 129.477v-27.61c0-12.57-5.488-16.572-6.039-17.158-2.718-2.894-4.476-7.391-4.476-12.422V16.082C35.072 7.405 40.293 0 46.675 0H11.65C5.269 0 .048 7.405.048 16.082v56.205c0 5.03 1.757 9.528 4.476 12.422.55.586 6.038 4.587 6.038 17.159v27.609c0 8.677 5.221 15.776 11.602 15.776H57.19c-6.381 0-11.602-7.1-11.602-15.776z" transform="rotate(20 240.826 378.652) translate(21.57 16)"/>
                            <path fill="#96C8EF" d="M50.627 117.732c-7.578 0-13.778 4.599-13.778 10.22v17.301h27.555v-17.301c0-5.621-6.2-10.22-13.777-10.22z" transform="rotate(20 240.826 378.652) translate(21.57 16)"/>
                            <path fill="#FFC905" d="M7.662 56.534v17.464c0 1.662.517 3.225 1.423 4.32 5.864 5.698 9.091 15.162 9.091 26.676v28.93c0 3.08 1.827 5.682 3.989 5.682h56.923c2.163 0 3.989-2.602 3.989-5.683v-28.93c0-11.511 3.227-20.977 9.09-26.674.907-1.098 1.424-2.66 1.424-4.321V56.534H7.661z" transform="rotate(20 240.826 378.652) translate(21.57 16)"/>
                            <path fill="#F08E00" fill-opacity=".379" d="M7.662 60.792v13.206c0 1.662.517 3.225 1.423 4.32 5.864 5.698 9.091 15.162 9.091 26.676v28.93c0 3.08 1.827 5.682 3.989 5.682h24.133c-.46-1.774-.711-3.689-.711-5.683V98.044c0-13.173-5.488-17.366-6.039-17.98-2.718-3.031-4.476-7.744-4.476-13.016v-6.256H7.662z" transform="rotate(20 240.826 378.652) translate(21.57 16)"/>
                            <path fill="#E46609" d="M18.176 127.828v6.095c0 3.08 1.827 5.683 3.989 5.683h56.923c2.163 0 3.989-2.602 3.989-5.683v-6.095h-64.9z" transform="rotate(20 240.826 378.652) translate(21.57 16)"/>
                            <path fill="#FFF4EA" d="M89.448 54.239H11.805c-3.155 0-4.143 1.606-4.143 2.431v5.675h85.93V56.66c0-1.339-1.856-2.42-4.144-2.42z" transform="rotate(20 240.826 378.652) translate(21.57 16)"/>
                        </g>
                    </g>
                </g>
            </g>
        </g>
    </g>
</svg>
