<svg xmlns="http://www.w3.org/2000/svg" width="348" height="248" viewBox="0 0 348 248">
    <g fill="none" fill-rule="evenodd">
        <g>
            <g>
                <g>
                    <path d="M0 0H348V248H0z" transform="translate(-86 -305) translate(70 147) translate(16 158)"/>
                    <g>
                        <path fill="#3C5407" d="M45.579 19.638s-4.485-9.583-9.544-15.799L44.363 0l7.68 16.662-6.464 2.976" transform="translate(-86 -305) translate(70 147) translate(16 158) translate(29 49)"/>
                        <path fill="#378710" d="M157.865 57.71c16.422 42.038-4.35 89.43-46.39 105.848-42.042 16.422-89.434-4.345-105.854-46.387-16.419-42.045 4.353-89.438 46.395-105.855 42.04-16.421 89.432 4.35 105.85 46.395" transform="translate(-86 -305) translate(70 147) translate(16 158) translate(29 49)"/>
                        <path fill="#5AB130" d="M32.427 22.267C-21.24 60.983 18.633 173.848 89.645 168.775 22.106 146.805 9.665 65.862 32.427 22.267" transform="translate(-86 -305) translate(70 147) translate(16 158) translate(29 49)"/>
                        <path fill="#5AB130" d="M40.734 16.739c-35.05 40.827 18.871 151.493 63.84 149.16-37.806-28.748-67.266-93.392-63.84-149.16" transform="translate(-86 -305) translate(70 147) translate(16 158) translate(29 49)"/>
                        <path fill="#5AB130" d="M48.415 12.82c3.528 28.802 38.02 113.596 64.884 150.029 9.516-34.95-49.43-139.22-64.884-150.028" transform="translate(-86 -305) translate(70 147) translate(16 158) translate(29 49)"/>
                        <path fill="#5AB130" d="M57.646 9.343c72.12 20.324 100.023 122.393 61.459 150.782 18.8-28.39-15.165-109.514-61.46-150.782" transform="translate(-86 -305) translate(70 147) translate(16 158) translate(29 49)"/>
                        <path fill="#5AB130" d="M73.816 6.106c72.49-4.947 115.468 110.675 57.22 146.502 41.488-64.554-6.25-134.624-57.22-146.502" transform="translate(-86 -305) translate(70 147) translate(16 158) translate(29 49)"/>
                        <path fill="#378710" d="M284.232 87.44c0 41.991-34.042 76.027-76.03 76.027-41.99 0-76.03-34.036-76.03-76.026v-.005h-5.695v.005c0 45.132 36.592 81.721 81.724 81.721 45.135 0 81.722-36.589 81.722-81.721v-.005h-5.691v.005" transform="translate(-86 -305) translate(70 147) translate(16 158) translate(29 49)"/>
                        <path fill="#D4D69E" d="M208.201 163.467c41.989 0 76.031-34.036 76.031-76.026v-.005h-8.825v.005c0 37.116-30.092 67.203-67.206 67.203-37.114 0-67.203-30.087-67.203-67.203v-.005h-8.825v.005c0 41.99 34.04 76.026 76.028 76.026" transform="translate(-86 -305) translate(70 147) translate(16 158) translate(29 49)"/>
                        <path fill="#EA006C" d="M208.201 154.644c37.114 0 67.206-30.087 67.206-67.203v-.005H140.998v.005c0 37.116 30.09 67.203 67.203 67.203" transform="translate(-86 -305) translate(70 147) translate(16 158) translate(29 49)"/>
                        <path fill="#AF0050" d="M208.164 131.736c.688-.003 3.676 2.493 3.69 5.597.009 3.081-1.2 5.596-3.6 5.64-.016.005-.034 0-.053.005-2.428.018-3.673-2.491-3.685-5.591-.014-3.107 2.955-5.642 3.648-5.651M221.854 129.58c.653-.219 4.269 1.235 5.236 4.185.961 2.927.593 5.684-1.679 6.47-.011.014-.03.014-.046.023-2.305.77-4.264-1.231-5.232-4.18-.975-2.95 1.066-6.276 1.721-6.497M234.209 123.302c.555-.413 4.44-.15 6.271 2.356 1.82 2.488 2.319 5.226.406 6.68-.01.014-.028.016-.04.03-1.952 1.444-4.438.147-6.269-2.356-1.838-2.505-.926-6.302-.368-6.71M244.016 113.509c.404-.56 4.18-1.516 6.696.3 2.498 1.806 3.82 4.257 2.449 6.23-.002.017-.019.026-.028.045-1.411 1.97-4.175 1.506-6.691-.306-2.522-1.812-2.827-5.702-2.426-6.27M250.318 101.169c.212-.66 3.508-2.734 6.463-1.785 2.934.943 4.949 2.864 4.254 5.171.002.014-.01.026-.014.044-.732 2.314-3.503 2.725-6.458 1.78-2.958-.947-4.453-4.553-4.245-5.21M166.056 101.087c.222.655-1.227 4.268-4.177 5.238-2.927.961-5.681.597-6.472-1.679-.016-.01-.014-.028-.023-.047-.77-2.297 1.229-4.258 4.177-5.231 2.948-.977 6.28 1.064 6.495 1.719M172.335 113.446c.415.555.154 4.44-2.351 6.271-2.489 1.82-5.222 2.323-6.678.402-.016-.007-.018-.021-.032-.035-1.444-1.95-.15-4.434 2.353-6.267 2.503-1.843 6.304-.93 6.708-.371M182.128 123.258c.565.396 1.519 4.172-.3 6.689-1.804 2.5-4.25 3.82-6.223 2.449-.021-.003-.028-.016-.045-.028-1.975-1.407-1.51-4.168.301-6.687 1.813-2.523 5.707-2.834 6.267-2.423M194.473 129.557c.66.206 2.734 3.504 1.782 6.46-.942 2.935-2.86 4.948-5.164 4.25-.018.005-.03-.009-.049-.011-2.313-.723-2.724-3.499-1.78-6.451.943-2.962 4.553-4.462 5.211-4.248M219.933 105.551c.56-.184 3.664 1.059 4.496 3.594.828 2.514.509 4.884-1.439 5.563-.011.014-.03.014-.042.018-1.98.66-3.666-1.056-4.496-3.59-.838-2.532.916-5.398 1.48-5.585M238.976 91.741c.345-.485 3.592-1.299 5.754.264 2.143 1.549 3.281 3.652 2.103 5.35-.002.014-.016.021-.023.038-1.213 1.695-3.587 1.296-5.751-.262-2.165-1.56-2.428-4.905-2.083-5.39M177.382 91.685c.357.479.128 3.816-2.022 5.393-2.139 1.56-4.487 1.996-5.74.343-.012-.005-.014-.02-.023-.033-1.246-1.672-.13-3.809 2.02-5.378 2.15-1.586 5.415-.803 5.765-.325M196.402 105.532c.569.182 2.35 3.009 1.535 5.549-.812 2.521-2.461 4.254-4.439 3.657-.018.002-.028-.012-.044-.014-1.985-.623-2.34-3.004-1.528-5.542.81-2.547 3.914-3.836 4.476-3.65" transform="translate(-86 -305) translate(70 147) translate(16 158) translate(29 49)"/>
                    </g>
                </g>
            </g>
        </g>
    </g>
</svg>
