<?xml version="1.0" encoding="UTF-8"?>
<svg width="284px" height="469px" viewBox="0 0 284 469" version="1.1" xmlns="http://www.w3.org/2000/svg" xmlns:xlink="http://www.w3.org/1999/xlink">
    <title>Illustration/Weight2</title>
    <defs>
        <rect id="path-1" x="0" y="0" width="146" height="232" rx="13"></rect>
        <filter x="-14.6%" y="-9.2%" width="129.2%" height="118.4%" filterUnits="objectBoundingBox" id="filter-3">
            <feGaussianBlur stdDeviation="11" in="SourceGraphic"></feGaussianBlur>
        </filter>
    </defs>
    <g id="Illustration/Weight2" stroke="none" stroke-width="1" fill="none" fill-rule="evenodd">
        <rect id="Boundary" x="0" y="0" width="284" height="469"></rect>
        <path d="M92,440.4 L194.3,440.4 L194.3,451.4 C194.3,453.22254 192.82254,454.7 191,454.7 L95.3,454.7 C93.4774603,454.7 92,453.22254 92,451.4 L92,440.4 L92,440.4 Z" id="Rectangle" fill="#B5E1FF"></path>
        <path d="M92,449.2 L194.3,449.2 L194.3,451.4 C194.3,453.22254 192.82254,454.7 191,454.7 L95.3,454.7 C93.4774603,454.7 92,453.22254 92,451.4 L92,449.2 L92,449.2 Z" id="Rectangle" fill="#A4CCFF"></path>
        <path d="M177.653056,417.5 C179.158438,417.5 180.594775,417.938695 181.811573,418.719512 C183.028371,419.500329 184.02563,420.623268 184.652855,421.991759 L184.652855,421.991759 L192.585799,439.3 L93.7142014,439.3 L101.647145,421.991759 C102.27437,420.623268 103.271629,419.500329 104.488427,418.719512 C105.705225,417.938695 107.141562,417.5 108.646944,417.5 L108.646944,417.5 Z" id="Rectangle" stroke="#B5E1FF" stroke-width="2.2" fill="#FFFFFF"></path>
        <path d="M133.570217,81.5810444 C136.654217,82.9890444 140.054217,83.8250444 143.666217,83.8250444 C147.270217,83.8250444 150.670217,82.9890444 153.758217,81.5810444 L153.758217,68.8610444 L133.570217,68.8610444 L133.570217,81.5810444" id="Fill-88" fill="#FAA9A8"></path>
        <path d="M172.134217,53.1770444 C171.226217,55.8610444 168.886217,57.4890444 166.890217,56.8170444 C164.898217,56.1610444 164.014217,53.4370444 164.918217,50.7450444 C165.822217,48.0690444 168.170217,46.4250444 170.154217,47.1010444 C172.154217,47.7730444 173.038217,50.4970444 172.134217,53.1770444" id="Fill-89" fill="#EB9392"></path>
        <path d="M114.682217,53.1770444 C115.586217,55.8610444 117.934217,57.4890444 119.930217,56.8170444 C121.914217,56.1610444 122.806217,53.4370444 121.894217,50.7450444 C120.998217,48.0690444 118.650217,46.4250444 116.662217,47.1010444 C114.662217,47.7730444 113.778217,50.4970444 114.682217,53.1770444" id="Fill-90" fill="#EB9392"></path>
        <path d="M143.666217,18.6130444 C157.118217,18.6130444 168.022217,29.5130444 168.022217,42.9690444 L168.022217,55.6890444 C168.022217,65.5467438 162.173686,74.0292015 153.75901,77.8634567 L153.758217,94.1170444 L153.440647,94.1168223 L153.440217,94.1170444 L153.761765,94.1178012 C153.962391,94.1609312 162.636668,96.0679162 170.786798,105.080012 L171.074217,105.401044 C177.051938,112.139708 181.571916,122.490031 183.219784,139.024282 L183.314217,139.013044 L188.466217,180.701044 C188.622092,181.801455 188.540603,182.880021 188.260664,183.884973 L181.882217,225.925044 C181.882217,225.925044 188.330217,234.577044 178.734217,246.257044 C176.242217,249.289044 172.794217,247.901044 176.070217,239.857044 C178.278217,234.409044 177.834217,230.749044 174.818217,233.025044 C173.606217,233.949044 173.486217,234.749044 172.346217,234.625044 C169.538217,234.317044 175.074217,225.469044 175.074217,225.469044 L175.074217,225.468044 L172.384665,182.780919 C172.339892,182.607089 172.301837,182.432125 172.270836,182.256317 L172.234217,182.025044 L167.842217,142.795044 L167.194217,142.913044 L164.928601,207.919856 C169.417134,226.847507 172.1076,247.21697 173,269.028247 C173.886155,290.686885 173.915341,336.155797 173.087558,405.434986 C173.276504,407.03004 173.523132,408.298697 173.844118,408.949206 C176.17098,413.655574 186.562985,416.676017 187.884169,424.482312 C188.586172,428.6532 186.137051,433.443237 179.448307,430.481362 C178.446573,430.037918 160.289158,422.444978 159.796179,418.562747 C159.460327,415.884683 159.07466,409.498199 158.642565,402.800745 L158.57209,401.712482 C158.560276,401.53083 158.548429,401.349084 158.536547,401.167313 L158.464857,400.076909 L158.39236,398.989102 C158.242694,396.760621 158.087953,394.568917 157.928262,392.539367 C157.090596,388.344215 156.196825,383.79376 155.320471,379.201171 L155.029098,377.669177 C154.980678,377.413728 154.932336,377.158256 154.884085,376.902815 L154.595783,375.370972 C152.538939,364.401593 150.698044,353.688203 150.075445,347.500196 C149.292597,339.674569 148.055952,325.553931 146.853803,311.426392 L146.673801,309.307996 C146.164872,303.31018 145.666585,297.367906 145.216422,291.963886 L144.982803,289.155874 C144.017133,277.534545 143.324973,269.028247 143.324973,269.028247 C143.324973,269.028247 141.890901,284.520909 140.295001,301.369223 L140.195058,302.42388 L140.195058,302.42388 L140.094763,303.481301 L140.094763,303.481301 L139.918163,305.340782 L139.783725,306.754169 C139.694039,307.69641 139.604271,308.638212 139.514636,309.577158 L139.380313,310.983134 C138.351689,321.741229 137.35521,331.961846 136.721683,337.96909 C135.976218,344.990937 134.132781,357.264159 132.121212,369.854013 L131.888415,371.307813 L131.888415,371.307813 L131.564208,373.322269 C129.880961,383.75177 128.141006,394.088212 126.870875,401.537256 C126.657741,404.099753 126.590536,406.054159 126.850006,407.254435 C127.077609,408.29836 128,410.609908 125.975531,415.150154 C125.124571,417.05274 123.443873,420.358682 121.666386,423.737472 L121.284281,424.462129 L120.900816,425.186106 C118.343411,430.003892 115.802165,434.582444 115.413953,435.042729 C111.165364,440.09251 101.590066,436.600331 103.175301,428.642473 C104.552898,421.736825 110.111203,413.26529 111.904075,408.758184 C112.627858,406.946265 113.118878,403.556515 113.448192,400.113751 C111.601031,354.368473 111.785013,310.673239 114,269.028247 C115.387633,242.93872 118.130743,224.94734 122.229332,215.054106 L121.722217,141.869044 L119.487217,141.667044 L114.968425,182.025044 L114.931806,182.256317 C114.900806,182.432125 114.862751,182.607089 114.817977,182.780919 L114.817977,182.780919 L112.128425,225.468044 C112.128425,225.469044 117.664425,234.317044 114.856425,234.625044 C113.716425,234.749044 113.596425,233.949044 112.384425,233.025044 C109.368425,230.749044 108.924425,234.409044 111.132425,239.857044 C114.408425,247.901044 110.960425,249.289044 108.468425,246.257044 C98.8724248,234.577044 105.320425,225.925044 105.320425,225.925044 L105.320425,225.925044 L98.9419782,183.884973 C98.6620391,182.880021 98.5805505,181.801455 98.7364248,180.701044 L98.7364248,180.701044 L103.888425,139.013044 L104.14154,139.047286 C111.627014,100.791427 133.570217,94.1170444 133.570217,94.1170444 L133.570217,94.1170444 L133.639392,94.1178236 C133.639333,94.1174899 133.639274,94.1171561 133.639215,94.1168223 L133.570217,94.1170444 L133.570251,77.862654 C125.154224,74.0280177 119.302217,65.546056 119.302217,55.6890444 L119.302217,42.9690444 C119.302217,29.5130444 130.214217,18.6130444 143.666217,18.6130444 Z" id="Combined-Shape" fill="#712323"></path>
        <path d="M178.120854,143.633044 C174.656854,139.533044 170.736854,125.561044 176.728854,112.349044 C182.720854,99.1410444 180.464854,80.8690444 176.960854,68.8170444 C173.448854,56.7690444 172.052854,38.8970444 172.052854,38.8970444 L172.040854,38.9730444 C172.036854,31.6410444 169.420854,23.6850444 158.888854,17.9130444 C135.480854,5.06504437 124.584854,21.4770444 124.584854,21.4770444 C119.096854,21.2050444 116.664854,26.1410444 115.368854,32.7130444 L115.356854,32.6410444 L115.368854,32.7370444 C115.044854,34.3330444 114.776854,35.9930444 114.572854,37.7330444 C114.408854,39.1210444 114.644854,41.1450444 115.028854,43.2730444 C114.440854,48.4410444 113.116854,54.9970444 110.224854,61.8370444 C102.120854,81.0010444 108.600854,94.9810444 116.708854,103.545044 C129.792854,117.373044 120.320854,129.385044 114.516854,139.117044 C108.712854,148.849044 112.940854,163.093044 122.356854,166.565044 C131.776854,170.045044 144.956854,164.453044 141.716854,153.137044 C138.772854,142.885044 138.252854,135.525044 141.268854,126.485044 C144.296854,117.449044 141.092854,98.5570444 133.484854,93.6450444 L133.580854,77.6650444 C133.580854,77.6650444 122.988854,73.9330444 119.700854,59.2370444 C119.700854,59.2370444 119.244854,52.4650444 125.092854,49.1050444 C130.364854,46.0850444 129.664854,42.7690444 129.592854,40.3330444 C131.032854,42.1450444 133.476854,43.1290444 137.604854,41.6570444 C146.380854,38.5370444 149.028854,50.1050444 160.300854,50.1050444 C163.880854,50.1050444 167.312854,57.1090444 167.312854,57.1090444 C163.912854,73.7010444 153.316854,77.6530444 153.316854,77.6530444 L153.316854,93.6450444 C157.484854,96.9370444 157.588854,109.157044 156.108854,119.297044 C153.304854,138.413044 160.740854,157.765044 167.340854,159.393044 C173.948854,161.009044 185.764854,152.665044 178.120854,143.633044" id="Fill-102" fill="#EA006C"></path>
        <path d="M82,352.4 C84.209139,352.4 86,354.190861 86,356.4 L86,452.4 C86,453.504569 85.1045695,454.4 84,454.4 L80,454.4 C78.8954305,454.4 78,453.504569 78,452.4 L78,356.4 C78,354.190861 79.790861,352.4 82,352.4 Z" id="Rectangle" fill="#EA006C"></path>
        <path d="M204,352.4 C206.209139,352.4 208,354.190861 208,356.4 L208,452.4 C208,453.504569 207.104569,454.4 206,454.4 L202,454.4 C200.895431,454.4 200,453.504569 200,452.4 L200,356.4 C200,354.190861 201.790861,352.4 204,352.4 Z" id="Rectangle-Copy-25" fill="#EA006C"></path>
        <rect id="Rectangle" fill="#60002C" x="76" y="441.4" width="12" height="15" rx="2.5"></rect>
        <rect id="Rectangle-Copy-26" fill="#60002C" x="198" y="441.4" width="12" height="15" rx="2.5"></rect>
        <g id="Rectangle-+-Rectangle-Mask" transform="translate(69.000000, 133.000000)">
            <mask id="mask-2" fill="white">
                <use xlink:href="#path-1"></use>
            </mask>
            <g id="Mask"></g>
            <rect id="Rectangle" fill-opacity="0.97" fill="#FFFFFF" filter="url(#filter-3)" mask="url(#mask-2)" x="-40" y="-63" width="226" height="358" rx="13"></rect>
            <rect id="Rectangle" stroke="#FFFFFF" stroke-width="5" mask="url(#mask-2)" x="2.5" y="2.5" width="141" height="227" rx="13"></rect>
        </g>
    </g>
</svg>