<svg xmlns="http://www.w3.org/2000/svg" xmlns:xlink="http://www.w3.org/1999/xlink" width="267" height="110" viewBox="0 0 267 110">
    <defs>
        <path id="9e3fjjukga" d="M0 0H267V110H0z"/>
    </defs>
    <g fill="none" fill-rule="evenodd">
        <g>
            <g transform="translate(-652 -1438) translate(652 1438)">
                <mask id="0wl7pgv7db" fill="#fff">
                    <use xlink:href="#9e3fjjukga"/>
                </mask>
                <use fill="#FEF4F9" xlink:href="#9e3fjjukga"/>
                <g mask="url(#0wl7pgv7db)">
                    <g>
                        <path fill="#B5E1FF" fill-rule="nonzero" d="M32.978 25.854C26.937 25.854 22 30.79 22 36.832v111.692c0 6.033 4.937 10.979 10.978 10.979h129.365c6.032 0 10.978-4.946 10.978-10.979V36.832c0-6.033-4.946-10.978-10.978-10.978H32.978z" transform="translate(35.881 -26.776) rotate(-25 97.66 92.678)"/>
                        <path fill="#F4FAFE" fill-rule="nonzero" d="M33.566 39.078v107.195c0 .915.75 1.658 1.657 1.658H160.09c.915 0 1.657-.743 1.657-1.658V39.078c0-.906-.742-1.649-1.657-1.649H138.92v.45c0 22.793-18.47 41.263-41.263 41.263-22.785 0-41.263-18.47-41.263-41.264 0-.146.008-.302.008-.449h-21.18c-.906 0-1.656.743-1.656 1.649z" transform="translate(35.881 -26.776) rotate(-25 97.657 92.68)"/>
                        <path fill="#F9F7F8" d="M44.809 43.01c0 8.2 3.322 15.623 8.69 21 5.377 5.376 12.8 8.7 20.999 8.7 8.199 0 15.621-3.323 20.998-8.7 5.377-5.377 8.7-12.8 8.7-21 0-4.28-.906-8.345-2.537-12.022-1.494-3.366-3.59-6.404-6.163-8.976-5.377-5.369-12.799-8.691-20.998-8.691-8.2 0-15.622 3.322-20.998 8.69-2.564 2.573-4.67 5.61-6.163 8.977-1.622 3.677-2.528 7.742-2.528 12.023z" transform="translate(35.881 -26.776) rotate(-25 74.502 43.015)"/>
                        <path fill="#F0F0F0" d="M83.303 16.691c2.571 2.572 4.669 5.61 6.162 8.976.078.164.147.337.216.5 1.493 3.548 2.321 7.44 2.321 11.523 0 8.2-3.323 15.622-8.7 20.999-2.796 2.796-6.144 5.04-9.873 6.542-2.175.88-4.48 1.51-6.879 1.855 2.21.527 4.514.803 6.879.803 8.199 0 15.622-3.323 20.998-8.7 5.377-5.377 8.7-12.8 8.7-20.999 0-4.28-.906-8.346-2.537-12.022-1.493-3.366-3.59-6.405-6.163-8.976C89.051 11.823 81.628 8.5 73.43 8.5c-1.441 0-2.857.104-4.238.302 1.46.346 2.874.794 4.238 1.347 3.729 1.51 7.077 3.746 9.874 6.542z" transform="translate(35.881 -26.776) rotate(-25 84.839 38.195)"/>
                        <path fill="#A4CCFF" d="M134.108 1c6.042 0 10.979 4.946 10.979 10.979v.595h9.493c.915 0 1.658.742 1.658 1.649v107.195c0 .915-.743 1.657-1.658 1.657h-9.493v.596c0 6.033-4.937 10.978-10.979 10.978h22.725c6.032 0 10.978-4.945 10.978-10.978V11.978C167.81 5.946 162.865 1 156.833 1h-22.725z" transform="translate(35.881 -26.776) rotate(-25 150.96 67.825)"/>
                        <path fill="#60002C" fill-rule="nonzero" d="M75.56 36.229c-1.214-.451-2.492-.59-3.74-.423l-3.055-6.671c-.525-1.147-1.88-1.65-3.027-1.125-1.147.525-1.651 1.88-1.125 3.027l3.06 6.68c-2.483 2.218-3.353 5.88-1.895 9.056.869 1.89 2.42 3.329 4.369 4.05.881.327 1.795.489 2.707.489 1.106 0 2.208-.24 3.24-.713 1.888-.862 3.327-2.409 4.052-4.357.726-1.953.647-4.072-.222-5.964-.863-1.887-2.413-3.325-4.363-4.05zm.305 8.421c-.298.802-.89 1.44-1.672 1.796-.781.36-1.655.392-2.46.095-.805-.299-1.446-.893-1.804-1.674-.74-1.61-.03-3.524 1.582-4.266.78-.358 1.654-.39 2.46-.09.806.299 1.445.89 1.802 1.67.36.784.393 1.661.092 2.47z" transform="translate(35.881 -26.776) rotate(-25 72.521 39.557)"/>
                        <path fill="#60002C" fill-rule="nonzero" d="M74.498 11.037c-17.63 0-31.973 14.343-31.973 31.974 0 17.635 14.343 31.982 31.973 31.982 17.634 0 31.982-14.347 31.982-31.982 0-17.63-14.348-31.974-31.982-31.974zM95.42 60.704l-2.245-2.245c-.891-.892-2.337-.892-3.23 0-.891.892-.891 2.338 0 3.23l2.246 2.245c-4.233 3.585-9.564 5.912-15.41 6.396v-3.196c0-1.261-1.022-2.284-2.283-2.284s-2.284 1.023-2.284 2.284v3.196c-5.844-.485-11.173-2.811-15.405-6.397l2.248-2.243c.892-.89.894-2.337.003-3.23-.89-.892-2.337-.893-3.23-.003l-2.25 2.245c-3.583-4.233-5.908-9.563-6.392-15.408h3.187c1.262 0 2.284-1.022 2.284-2.284 0-1.26-1.022-2.283-2.284-2.283h-3.187c.485-5.844 2.81-11.172 6.394-15.404l2.247 2.248c.446.446 1.03.669 1.615.669.584 0 1.169-.223 1.615-.67.891-.891.891-2.337 0-3.229l-2.248-2.248c4.232-3.583 9.56-5.909 15.403-6.393v3.187c0 1.261 1.023 2.284 2.284 2.284s2.284-1.023 2.284-2.284V15.7c5.845.484 11.175 2.81 15.408 6.393l-2.246 2.25c-.89.893-.889 2.339.004 3.23.446.445 1.03.667 1.613.667.585 0 1.17-.224 1.617-.671l2.242-2.247c3.586 4.232 5.912 9.56 6.397 15.405H98.62c-1.261 0-2.284 1.022-2.284 2.284 0 1.26 1.023 2.283 2.284 2.283h3.196c-.485 5.846-2.811 11.177-6.397 15.41z" transform="translate(35.881 -26.776) rotate(-25 74.502 43.015)"/>
                        <path fill="#EA006C" d="M140.476 114.984H82.737c-.863 0-1.58.708-1.58 1.58v12.065c0 .872.717 1.58 1.58 1.58h57.74c.871 0 1.579-.708 1.579-1.58v-12.066c0-.871-.708-1.58-1.58-1.58z" transform="translate(35.881 -26.776) rotate(-25 111.607 122.596)"/>
                        <path fill="#60002C" d="M126.724 106.812v12.066c0 .872-.708 1.58-1.58 1.58h13.17c.872 0 1.58-.708 1.58-1.58v-12.066c0-.872-.708-1.58-1.58-1.58h-13.17c.872 0 1.58.708 1.58 1.58z" transform="translate(35.881 -26.776) rotate(-25 132.519 112.845)"/>
                        <path fill="#E9F0F5" fill-rule="nonzero" d="M145.675 14.348v107.196c0 .492-.215.94-.56 1.243v.414h9.493c.915 0 1.657-.742 1.657-1.657V14.348c0-.906-.742-1.648-1.657-1.648h-9.494v.414c.346.302.561.742.561 1.234z" transform="translate(35.881 -26.776) rotate(-25 150.69 67.95)"/>
                    </g>
                </g>
            </g>
        </g>
    </g>
</svg>
