<?xml version="1.0" encoding="UTF-8"?>
<svg width="284px" height="469px" viewBox="0 0 284 469" version="1.1" xmlns="http://www.w3.org/2000/svg" xmlns:xlink="http://www.w3.org/1999/xlink">
    <title>Illustration/Wellbeing</title>
    <g id="Illustration/Wellbeing" stroke="none" stroke-width="1" fill="none" fill-rule="evenodd">
        <path d="M204.008264,230.280644 C202.545538,221.119658 198.727834,215.621527 198.009015,198.940197 C197.278198,182.258867 194.00588,174.385543 191.464381,168.700476 C188.910882,163.015408 189.010143,131.676061 185.911258,114.81879 C182.825463,97.9615203 169.474408,97.2247707 161.293615,95.3883949 C153.482593,93.6399892 151.476663,80.8733286 153.842548,73.3188964 L153.820733,73.2859076 C155.152566,72.0763188 156.274971,70.8557336 157.005788,69.7780999 C158.074745,68.2166307 159.263687,65.1596698 160.333735,61.4539293 C163.736945,61.9707537 166.855463,49.5889623 162.819605,50.0947904 C163.212283,47.6206313 163.484977,45.1794611 163.594054,42.9472199 C164.084901,33.3364866 157.148679,23 142.007667,23 L141.985852,23 C126.84593,23 119.908617,33.3364866 120.399465,42.9472199 C120.508542,45.1794611 120.792143,47.6206313 121.185912,50.0947904 L121.173913,50.0947904 C117.139146,49.5889623 120.268572,61.9927462 123.671782,61.4539293 C124.730922,65.1596698 125.918773,68.2166307 126.98773,69.7780999 C127.718548,70.8557336 128.843134,72.087315 130.184785,73.2969039 L130.162969,73.3188964 C132.517947,80.8733286 130.510925,93.6399892 122.700995,95.3883949 C114.520201,97.2247707 101.169147,97.9615203 98.0822607,114.81879 C94.9953747,131.676061 95.0826365,163.015408 92.5411367,168.700476 C89.9887291,174.385543 86.7164118,182.258867 85.996502,198.940197 C85.2656844,215.621527 81.4479809,221.119658 79.9972535,230.280644 C78.5356185,239.440531 78.4167243,247.422718 81.4479809,253.008819 C85.5383776,260.520366 99.4457262,256.946581 93.991864,255.572048 C88.5380018,254.197515 84.9929913,238.252935 87.9926156,242.376533 C90.9922398,246.500131 93.7191709,246.565009 93.7191709,246.565009 C93.7191709,246.565009 89.9014673,235.778776 88.5380018,234.404243 C84.2294506,230.05852 87.7199224,232.479897 94.5372502,215.160784 C101.354578,197.840571 107.081133,187.669028 105.717668,175.298233 C104.354202,162.927438 111.989609,150.556643 112.971305,136.8553 C116.888268,146.180131 123.891028,164.895769 121.62113,174.561484 C118.534244,187.756998 100.874638,210.673209 103.699739,241.462744 C106.535747,272.252278 111.258792,291.067983 114.71654,313.027518 C116.789008,326.201041 112.076871,345.554462 114.443847,362.235792 C116.810824,378.916023 119.537755,387.438126 119.908617,405.945935 C120.160586,418.920425 118.828753,423.528959 114.465663,430.048642 C109.917142,436.82344 105.335897,442.761421 109.513556,443.861048 C113.691214,444.960674 124.097184,445.993223 125.918773,443.244157 C127.730547,440.495092 126.824115,437.373253 129.736477,434.447147 C132.639023,431.512245 134.710399,430.29056 132.354331,423.14299 C129.987355,415.995419 131.92893,414.796827 131.623513,411.532036 C131.132666,406.087787 130.2066,406.835533 132.21253,391.440765 C134.208644,376.045998 139.040766,366.359391 136.106588,348.490464 C132.8899,328.917117 133.608719,327.002668 133.805058,317.513993 C133.99049,308.539944 137.808193,285.447793 139.444352,265.654521 C141.08051,245.861249 138.626272,234.404243 138.626272,234.404243 L141.985852,233.9424 L142.007667,233.9424 L145.379245,234.404243 C145.379245,234.404243 142.923916,245.861249 144.561165,265.654521 C146.197324,285.447793 150.015028,308.539944 150.18846,317.513993 C150.38589,327.002668 151.1058,328.917117 147.888021,348.490464 C144.952753,366.359391 149.785965,376.045998 151.792987,391.440765 C153.7891,406.835533 152.872851,406.087787 152.370005,411.532036 C152.075497,414.796827 154.006164,415.995419 151.651186,423.14299 C149.28421,430.29056 151.355587,431.512245 154.257042,434.447147 C157.169404,437.373253 156.264063,440.495092 158.074745,443.244157 C159.896335,445.993223 170.302304,444.960674 174.479963,443.861048 C178.657621,442.761421 174.076377,436.82344 169.527856,430.048642 C165.164766,423.528959 163.835114,418.920425 164.095809,405.945935 C164.455764,387.438126 167.194694,378.916023 169.549671,362.235792 C171.917738,345.554462 167.204511,326.201041 169.276978,313.027518 C172.735818,291.067983 177.457772,272.252278 180.29378,241.462744 C183.118881,210.673209 165.459275,187.756998 162.373479,174.561484 C160.11449,164.895769 167.107432,146.202123 171.022214,136.877293 C172.015908,150.567639 179.639316,162.938434 178.275851,175.298233 C176.912385,187.669028 182.638941,197.840571 189.456268,215.160784 C196.273596,232.479897 199.764068,230.05852 195.455517,234.404243 C194.092051,235.778776 190.274348,246.565009 190.274348,246.565009 C190.274348,246.565009 193.001279,246.500131 196.000903,242.376533 C199.000527,238.252935 195.455517,254.197515 190.001655,255.572048 C184.547792,256.946581 198.455141,260.520366 202.545538,253.008819 C205.588793,247.422718 205.458991,239.440531 204.008264,230.280644" id="Fill-1" fill="#F7D0AB"></path>
    </g>
</svg>