<svg xmlns="http://www.w3.org/2000/svg" xmlns:xlink="http://www.w3.org/1999/xlink" width="267" height="110" viewBox="0 0 267 110">
    <defs>
        <path id="974glluepa" d="M0 0H267V110H0z"/>
    </defs>
    <g fill="none" fill-rule="evenodd">
        <g>
            <g transform="translate(-943 -1438) translate(943 1438)">
                <mask id="hbsbhkxlhb" fill="#fff">
                    <use xlink:href="#974glluepa"/>
                </mask>
                <use fill="#FEF4F9" xlink:href="#974glluepa"/>
                <g fill-rule="nonzero" mask="url(#hbsbhkxlhb)">
                    <g>
                        <path fill="#FF4A9D" d="M99.815 0h-76.64C10.42 0 .08 10.34.08 23.093V73.36c0 12.754 10.34 23.093 23.093 23.093h11c.523 0 .947.424.947.947v24.796c0 2.932 3.586 4.353 5.594 2.217l26.016-27.662c.18-.19.43-.298.69-.298h32.394c12.754 0 23.093-10.34 23.093-23.093V23.093C122.908 10.339 112.57 0 99.815 0z" transform="rotate(20 124.126 252.352)"/>
                        <path fill="#EA006C" d="M44.836 87.835c0-.551-.41-.998-.917-.998H33.27c-12.347 0-22.356-10.887-22.356-24.318V9.585c0-2.272.287-4.472.823-6.559C4.775 7.004.08 14.5.08 23.093V73.36c0 12.754 10.34 23.093 23.093 23.093h11c.523 0 .947.424.947.947v24.796c0 2.932 3.586 4.353 5.594 2.217l4.121-4.381V87.835z" transform="rotate(20 124.126 252.352)"/>
                        <path fill="#EC5569" d="M87.442 29.97c-5.863-5.863-15.369-5.863-21.232 0l-3.312 3.312c-.79.79-2.07.79-2.86 0l-3.259-3.26c-5.863-5.863-15.369-5.863-21.232 0-5.863 5.864-5.863 15.37 0 21.233L60.04 75.748c.79.79 2.07.79 2.86 0l24.542-24.546c5.864-5.863 5.864-15.369 0-21.232z" transform="rotate(20 124.126 252.352)"/>
                        <path fill="#F4FAFE" d="M87.442 29.97c-5.863-5.863-15.369-5.863-21.232 0l-3.312 3.312c-.79.79-2.07.79-2.86 0l-3.259-3.26c-5.863-5.863-15.369-5.863-21.232 0-5.863 5.864-5.863 15.37 0 21.233L60.04 75.748c.79.79 2.07.79 2.86 0l24.542-24.546c5.864-5.863 5.864-15.369 0-21.232z" transform="rotate(20 124.126 252.352)"/>
                        <path fill="#B5E1FF" d="M43.4 51.255c-5.863-5.863-5.863-15.37 0-21.232 1.924-1.924 4.24-3.212 6.69-3.873-5.02-1.356-10.603-.067-14.543 3.873-5.863 5.863-5.863 15.369 0 21.232L60.04 75.748c.79.79 2.07.79 2.86 0l2.497-2.497L43.4 51.255z" transform="rotate(20 124.126 252.352)"/>
                    </g>
                </g>
            </g>
        </g>
    </g>
</svg>
