<svg xmlns="http://www.w3.org/2000/svg" width="108" height="178" viewBox="0 0 108 178">
    <g fill="none" fill-rule="evenodd">
        <g>
            <path d="M0 0H108V178H0z"/>
            <g fill-rule="nonzero">
                <path fill="#D1E7F8" d="M59.779 120.538c-16.774 0-19.326-6.736-19.64-9.68V68.01c0-6.828 7.65-8.765 7.65-8.765H23.56s7.649 1.937 7.649 8.765v42.84c-.31 2.938-2.85 9.688-19.64 9.688-2.384 0-4.334 1.95-4.334 4.334 0 2.383 1.95 4.333 4.334 4.333h48.21c2.383 0 4.334-1.95 4.334-4.333 0-4.202-4.335-4.334-4.335-4.334z" transform="translate(18 32)"/>
                <path fill="#96C8EF" d="M20.52 126.181c16.79 0 19.286-7.179 19.596-10.118l.024-48.052c0-6.829 7.649-8.766 7.649-8.766H23.56s7.649 1.937 7.649 8.766v42.838c-.31 2.94-2.85 9.69-19.64 9.69-2.384 0-4.334 1.95-4.334 4.333 0 2.384 1.95 4.333 4.334 4.333h4.822c.557-1.748 2.2-3.024 4.128-3.024z" transform="translate(18 32)"/>
                <path fill="#96C8EF" d="M40.14 68.01c0-6.828 7.648-8.765 7.648-8.765H23.561s7.649 1.937 7.649 8.765v1.887c1.468.148 2.958.224 4.465.224 1.507 0 2.996-.077 4.465-.224V68.01z" transform="translate(18 32)"/>
                <path fill="#E7F4FF" d="M64.865 2.53C64.17 1.282 62.853.51 61.425.51H9.924c-1.427 0-2.743.773-3.44 2.02C2.318 9.99.024 18.223.024 25.712c0 19.659 15.993 35.652 35.651 35.652 19.659 0 35.652-15.994 35.652-35.652 0-7.489-2.294-15.722-6.46-23.184z" transform="translate(18 32)"/>
                <path fill="#B5E1FF" d="M23.79 25.713c0-7.489 2.296-15.722 6.462-23.184.696-1.246 2.012-2.019 3.44-2.019H9.923c-1.428 0-2.744.773-3.44 2.02C2.316 9.99.022 18.223.022 25.712c0 19.659 15.993 35.652 35.652 35.652 4.165 0 8.165-.72 11.884-2.04-13.832-4.905-23.767-18.119-23.767-33.612z" transform="translate(18 32)"/>
                <path fill="#D10026" d="M7.556 21.836c-.158 1.735-.237 3.027-.237 3.877 0 15.635 12.72 28.356 28.355 28.356 15.636 0 28.356-12.72 28.356-28.356 0-.797-.07-2.01-.209-3.636l-56.265-.241z" transform="translate(18 32)"/>
                <path fill="#C20023" d="M7.319 25.713c8.48 18.904 17.932 28.356 28.355 28.356.703 0 1.4-.027 2.09-.078-5.659-4.348-10.317-13.774-13.973-28.278H7.319z" transform="translate(18 32)"/>
                <path fill="#B30020" d="M7.319 25.713c0 15.635 12.72 28.356 28.355 28.356 15.636 0 28.356-12.72 28.356-28.356 0-1.348-.091-2.72-.267-4.104H7.587c-.177 1.385-.268 2.756-.268 4.104z" transform="translate(18 32)"/>
                <path fill="#A2001D" d="M7.587 21.608c-.177 1.385-.268 2.757-.268 4.104 0 15.636 12.72 28.356 28.356 28.356.703 0 1.4-.027 2.09-.077-8.489-6.523-13.974-16.77-13.974-28.279 0-1.346.077-2.718.223-4.104H7.587z" transform="translate(18 32)"/>
                <path fill="#C70024" d="M41.685 36.806c-.575 0-1.138-.234-1.547-.643-.408-.408-.642-.972-.642-1.547 0-.577.234-1.14.642-1.55.409-.405.972-.638 1.547-.638.578 0 1.141.233 1.55.639.405.408.639.972.639 1.55 0 .574-.234 1.138-.64 1.546-.408.409-.97.643-1.549.643zM51.518 30.938c-.575 0-1.138-.234-1.547-.642-.408-.41-.642-.972-.642-1.547 0-.578.234-1.142.642-1.55.409-.406.972-.64 1.547-.64.578 0 1.141.234 1.55.64.405.409.639.972.639 1.55 0 .575-.234 1.138-.64 1.547-.408.408-.97.642-1.549.642zM32.054 32.531c-.575 0-1.139-.234-1.547-.642-.409-.409-.643-.972-.643-1.547 0-.578.234-1.141.643-1.55.408-.405.972-.639 1.547-.639.577 0 1.14.234 1.55.64.405.408.638.971.638 1.549 0 .575-.233 1.138-.639 1.547-.408.408-.972.642-1.55.642zM45.37 46.392c-.575 0-1.138-.233-1.547-.642-.409-.408-.642-.972-.642-1.547 0-.578.233-1.14.642-1.55.409-.405.972-.638 1.547-.638.578 0 1.141.233 1.55.639.405.408.639.972.639 1.55 0 .574-.234 1.138-.64 1.546-.408.409-.971.642-1.549.642z" transform="translate(18 32)"/>
            </g>
        </g>
    </g>
</svg>
